<svg width="25" height="25" viewBox="0 0 25 25" fill="none" xmlns="http://www.w3.org/2000/svg">
<path d="M12.5 25C19.4036 25 25 19.4036 25 12.5C25 5.59644 19.4036 0 12.5 0C5.59644 0 0 5.59644 0 12.5C0 19.4036 5.59644 25 12.5 25Z" fill="#CBDF02"/>
<g opacity="0.3">
<path d="M23.8529 11.995C23.9563 11.995 24.075 12.3448 24.1267 13.0019C24.1733 13.935 24.0706 14.8696 23.8225 15.7702C23.6579 16.3965 23.4391 17.0073 23.1684 17.5955C22.8498 18.2742 22.4689 18.9219 22.0307 19.5303C21.0235 20.9537 19.6954 22.1201 18.1538 22.935C16.6121 23.75 14.9004 24.1906 13.1569 24.2212C12.4074 24.2382 11.6579 24.1863 10.9179 24.0661C10.2782 23.9546 9.64928 23.7888 9.03788 23.5702C8.15349 23.2665 7.32359 22.8228 6.57986 22.256C6.06879 21.8423 5.84671 21.5472 5.90451 21.462C6.04749 21.2521 7.24 22.0187 9.35121 22.4963C9.92288 22.622 10.5021 22.7104 11.0852 22.761C11.7504 22.8128 12.4187 22.8128 13.0839 22.761C14.5968 22.6603 16.0717 22.2426 17.4128 21.5351C18.7539 20.8276 19.9313 19.8461 20.8686 18.6542C21.2878 18.1352 21.6651 17.5839 21.9972 17.0053C22.2861 16.4958 22.5402 15.9673 22.7578 15.4234C23.5609 13.4096 23.6004 11.995 23.8529 11.995Z" fill="black"/>
</g>
<path d="M9.95979 1.37503C9.80209 1.42181 9.64154 1.45839 9.47914 1.48454C9.04315 1.57857 8.61339 1.69947 8.19233 1.84655C6.79779 2.32626 5.52875 3.11298 4.47887 4.14864C3.42899 5.18431 2.62505 6.4425 2.12637 7.83037C1.97356 8.25014 1.84657 8.67886 1.74611 9.11414C1.72027 9.27644 1.68058 9.43623 1.62747 9.59175C1.62206 9.54933 1.62206 9.5064 1.62747 9.46398C1.62747 9.38185 1.64876 9.25712 1.67919 9.10197C1.75698 8.65799 1.86886 8.22067 2.01382 7.79387C2.49077 6.37463 3.29456 5.08734 4.36038 4.03579C5.42619 2.98424 6.7242 2.19787 8.14974 1.74008C8.57846 1.60566 9.01677 1.50396 9.46088 1.43587C9.61907 1.40849 9.7438 1.39937 9.82593 1.39024C9.86941 1.37784 9.91464 1.3727 9.95979 1.37503Z" fill="white"/>
<path d="M10.1696 11.1402C10.051 11.1402 9.97798 10.8086 9.69202 10.4101C9.32506 9.89697 8.7989 9.51946 8.19531 9.33619C7.55797 9.17041 6.89385 9.1342 6.24228 9.22971C5.71599 9.28751 5.36615 9.33923 5.32964 9.22971C5.29314 9.1202 5.56693 8.89508 6.11451 8.68214C6.85426 8.39731 7.66621 8.3589 8.42955 8.57262C8.82361 8.68657 9.18704 8.88761 9.49296 9.16089C9.79889 9.43417 10.0395 9.77271 10.197 10.1515C10.29 10.3808 10.3265 10.6291 10.3035 10.8755C10.2761 11.055 10.2244 11.1402 10.1696 11.1402Z" fill="#263238"/>
<path d="M19.9228 14.4256C19.8102 14.4561 19.652 14.1214 19.3144 13.7047C18.9204 13.1478 18.3845 12.7065 17.7623 12.4268C17.1402 12.147 16.4545 12.0389 15.7764 12.1136C15.241 12.1562 14.8942 12.2536 14.8394 12.1501C14.7847 12.0467 15.0615 11.7699 15.6578 11.5661C16.4577 11.3096 17.3242 11.3575 18.0911 11.7005C18.8579 12.0435 19.4712 12.6575 19.8133 13.4248C20.0597 14.0089 20.0201 14.4074 19.9228 14.4256Z" fill="#263238"/>
<path d="M14.6995 16.2844C14.7482 16.3696 14.3953 16.7072 13.6865 16.9506C12.7265 17.257 11.6901 17.2227 10.7523 16.8536C9.81461 16.4845 9.03294 15.8032 8.53929 14.9246C8.18032 14.2553 8.15903 13.7747 8.25333 13.7473C8.34764 13.7199 8.55754 14.0971 9.00473 14.6112C9.54803 15.2752 10.2487 15.7928 11.0429 16.1171C11.8459 16.4197 12.7112 16.519 13.5618 16.4061C14.228 16.3118 14.6417 16.181 14.6995 16.2844Z" fill="#263238"/>
<path d="M20.7046 9.84119C20.5069 9.94158 20.2391 9.8412 19.9289 9.71647C19.6186 9.59175 19.2505 9.41226 18.7972 9.20236C17.8846 8.78863 17.0358 8.32927 17.1088 7.88816C17.1453 7.67522 17.413 7.51398 17.845 7.46835C18.4029 7.42399 18.9626 7.52899 19.4665 7.77256C19.7586 7.90963 20.0284 8.09015 20.2665 8.30798C20.4707 8.49517 20.6379 8.71911 20.7593 8.96811C20.9632 9.40618 20.8932 9.74689 20.7046 9.84119Z" fill="#263238"/>
<path d="M10.7841 6.4797C10.635 6.64397 10.3186 6.6166 9.92317 6.51621C9.5277 6.41582 9.03792 6.2485 8.50251 6.07511C7.9671 5.90171 7.47124 5.75264 7.09097 5.60358C6.71071 5.45452 6.4278 5.29024 6.4278 5.056C6.4278 4.82176 6.65291 4.60577 7.13052 4.47192C7.74926 4.32068 8.39831 4.34918 9.00141 4.55405C9.61136 4.74145 10.1557 5.09799 10.5711 5.58228C10.8632 5.96863 10.9301 6.32151 10.7841 6.4797Z" fill="#263238"/>
</svg>
