<svg width="665" height="591" viewBox="0 0 665 591" fill="none" xmlns="http://www.w3.org/2000/svg">
<ellipse cx="332.5" cy="295.5" rx="320.5" ry="283.5" fill="#131313" stroke="#272727" stroke-opacity="0.23" stroke-width="23"/>
<g clip-path="url(#clip0_274_2)">
<g filter="url(#filter0_d_274_2)">
<path d="M333 522.715C455.883 522.715 555.5 464.166 555.5 391.943C555.5 319.719 455.883 261.171 333 261.171C210.117 261.171 110.5 319.719 110.5 391.943C110.5 464.166 210.117 522.715 333 522.715Z" fill="#F5F5F5"/>
</g>
<path d="M178.58 417.892C192.183 417.892 203.21 411.411 203.21 403.416C203.21 395.421 192.183 388.94 178.58 388.94C164.977 388.94 153.95 395.421 153.95 403.416C153.95 411.411 164.977 417.892 178.58 417.892Z" fill="#E6E6E6"/>
<path d="M368.26 325.814L206.38 420.966C205.755 421.318 205.234 421.834 204.871 422.461C204.508 423.088 204.316 423.802 204.316 424.529C204.316 425.256 204.508 425.97 204.871 426.597C205.234 427.224 205.755 427.74 206.38 428.092L301.52 484.011C303.911 485.416 306.624 486.156 309.385 486.156C312.146 486.156 314.859 485.416 317.25 484.011L479.13 388.868C479.755 388.516 480.276 388 480.639 387.374C481.002 386.747 481.193 386.033 481.193 385.305C481.193 384.578 481.002 383.864 480.639 383.237C480.276 382.611 479.755 382.095 479.13 381.742L384 325.814C381.607 324.406 378.893 323.665 376.13 323.665C373.367 323.665 370.652 324.406 368.26 325.814Z" fill="#E6E6E6"/>
<path d="M319.65 326.74L254.85 364.833C253.548 365.597 252.466 366.696 251.714 368.02C250.961 369.344 250.565 370.847 250.565 372.377C250.565 373.907 250.961 375.409 251.714 376.734C252.466 378.058 253.548 379.157 254.85 379.92L287.48 399.099C289.64 400.365 292.088 401.031 294.58 401.031C297.072 401.031 299.52 400.365 301.68 399.099L366.49 361.006C367.79 360.241 368.869 359.141 369.619 357.817C370.369 356.493 370.764 354.991 370.764 353.462C370.764 351.934 370.369 350.432 369.619 349.108C368.869 347.784 367.79 346.684 366.49 345.919L333.85 326.74C331.692 325.469 329.243 324.8 326.75 324.8C324.257 324.8 321.808 325.469 319.65 326.74Z" fill="#E6E6E6"/>
<path d="M179.88 365.994C179.88 365.994 164.66 350.856 173.32 325.508C178.17 311.307 194.26 300.873 203.42 299.895C200.387 303.563 197.968 307.715 196.26 312.183L184.72 319.991L195.33 316.611L193.07 325.854C193.07 325.854 183.21 331.962 181.75 333.245L192.38 330.364C192.38 330.364 191.56 356.547 179.88 365.994Z" fill="#CBDF02"/>
<path opacity="0.4" d="M179.88 365.994C179.88 365.994 164.66 350.856 173.32 325.508C178.17 311.307 194.26 300.873 203.42 299.895C200.387 303.563 197.968 307.715 196.26 312.183L184.72 319.991L195.33 316.611L193.07 325.854C193.07 325.854 183.21 331.962 181.75 333.245L192.38 330.364C192.38 330.364 191.56 356.547 179.88 365.994Z" fill="black"/>
<path d="M179.88 365.994C179.88 365.994 172 334.324 183.66 315.858C183.66 315.817 170 332.115 179.88 365.994Z" fill="white"/>
<path d="M197.3 370.239L178.67 369.995H178.48L159.86 370.239C159.86 370.239 159.65 393.592 166.72 403.09C168.72 405.625 173.25 407.396 178.58 407.396C183.91 407.396 188.5 405.615 190.45 403.08C197.5 393.572 197.3 370.239 197.3 370.239Z" fill="#37474F"/>
<path d="M178.58 380.47C188.919 380.47 197.3 375.889 197.3 370.239C197.3 364.589 188.919 360.008 178.58 360.008C168.241 360.008 159.86 364.589 159.86 370.239C159.86 375.889 168.241 380.47 178.58 380.47Z" fill="#455A64"/>
<path d="M178.58 367.521C185.02 367.521 190.47 369.628 192.39 372.54C192.864 371.868 193.125 371.066 193.14 370.239C193.14 366.167 186.62 362.92 178.58 362.92C170.54 362.92 164 366.198 164 370.239C164.017 371.064 164.274 371.865 164.74 372.54C166.68 369.628 172.14 367.521 178.58 367.521Z" fill="#263238"/>
<path d="M178.58 377.558C186.207 377.558 192.39 375.312 192.39 372.54C192.39 369.768 186.207 367.521 178.58 367.521C170.953 367.521 164.77 369.768 164.77 372.54C164.77 375.312 170.953 377.558 178.58 377.558Z" fill="#E0E0E0"/>
<path d="M178.81 373.802C178.81 373.802 171.59 373.517 165.41 363.765C162.85 359.743 161.62 357.657 161.62 357.657L171.62 356.893L160.36 354.032L155.04 345.746L164.39 345.033C164.39 345.033 157.39 342.549 152.46 342.519C152.46 342.519 143.83 327.015 141.31 324.806C147.831 325.214 154.206 326.948 160.058 329.906C165.91 332.865 171.12 336.987 175.38 342.03C189.6 359.061 180.91 374.24 178.81 373.802Z" fill="#CBDF02"/>
<path d="M178.81 373.802C178.81 373.802 183.32 346.133 154.53 329.499C154.53 329.499 184.41 344.107 178.81 373.802Z" fill="white"/>
<path d="M178.81 373.802C178.81 373.802 185.34 374.23 191.81 366.025C194.48 362.645 195.81 360.853 195.81 360.853L186.81 359.204L197.23 357.697L202.8 350.724L194.43 349.187C194.43 349.187 200.94 347.619 205.43 348.067C205.43 348.067 214.65 334.894 217.13 333.143C211.208 332.889 205.296 333.845 199.743 335.955C194.19 338.066 189.109 341.287 184.8 345.43C170.43 359.469 176.87 373.996 178.81 373.802Z" fill="#CBDF02"/>
<path opacity="0.2" d="M178.81 373.802C178.81 373.802 185.34 374.23 191.81 366.025C194.48 362.645 195.81 360.853 195.81 360.853L186.81 359.204L197.23 357.697L202.8 350.724L194.43 349.187C194.43 349.187 200.94 347.619 205.43 348.067C205.43 348.067 214.65 334.894 217.13 333.143C211.208 332.889 205.296 333.845 199.743 335.955C194.19 338.066 189.109 341.287 184.8 345.43C170.43 359.469 176.87 373.996 178.81 373.802Z" fill="black"/>
<path d="M178.81 373.802C178.81 373.802 177.29 348.413 204.81 336.136C204.81 336.156 176.5 346.479 178.81 373.802Z" fill="white"/>
<path d="M211.91 148.549V199.123L168.88 224.411V173.836L211.91 148.549Z" fill="#FAFAFA"/>
<path d="M207.25 151.288V196.385L168.88 218.934V173.836L207.25 151.288ZM209.58 147.216L166.58 172.503V223.077L168.91 224.451L211.91 199.164V148.549L209.58 147.175V147.216Z" fill="#E0E0E0"/>
<path d="M209.58 152.652V197.749L171.21 220.298V175.2L209.58 152.652ZM211.91 148.58L168.91 173.867V224.441L211.91 199.154V148.549V148.58Z" fill="#EBEBEB"/>
<path d="M205.59 187.549L173.04 206.677L182.66 181.217L189.32 189.259L196.13 179.395L205.59 187.549Z" fill="#E0E0E0"/>
<path d="M194.3 171.658C194.241 172.711 193.939 173.734 193.418 174.645C192.896 175.557 192.171 176.329 191.3 176.9C189.66 177.857 188.3 177.084 188.3 175.15C188.36 174.099 188.663 173.077 189.185 172.168C189.706 171.258 190.431 170.487 191.3 169.917C193 168.95 194.3 169.734 194.3 171.658Z" fill="#E0E0E0"/>
<path d="M226.26 85.5859V125.868L191.99 146.014V105.722L226.26 85.5859Z" fill="#FAFAFA"/>
<path d="M222.55 87.7644V123.71L192 141.657V105.722L222.56 87.7644M224.42 84.4865L190.13 104.633V144.925L191.99 146.014L226.26 125.868V85.5757L224.41 84.4865H224.42Z" fill="#E0E0E0"/>
<path d="M224.41 88.8537V124.779L193.84 142.747V106.811L224.41 88.8537ZM226.26 85.5757L192 105.722V146.014L226.27 125.868V85.5757H226.26Z" fill="#EBEBEB"/>
<path d="M221.23 116.655L195.3 131.895L202.96 111.606L208.27 118.019L213.69 110.15L221.23 116.655Z" fill="#E0E0E0"/>
<path d="M212.24 103.991C212.196 104.828 211.959 105.642 211.547 106.368C211.135 107.093 210.56 107.709 209.87 108.165C208.56 108.939 207.51 108.308 207.51 106.781C207.552 105.945 207.788 105.131 208.198 104.405C208.608 103.68 209.181 103.064 209.87 102.607C211.18 101.833 212.24 102.464 212.24 103.991Z" fill="#E0E0E0"/>
<path d="M299.15 318.484L313.06 404.902C313.162 405.534 313.482 406.108 313.962 406.522C314.442 406.936 315.051 407.163 315.68 407.162C316.052 407.161 316.42 407.081 316.76 406.926C317.099 406.771 317.403 406.545 317.651 406.263C317.899 405.981 318.086 405.648 318.2 405.287C318.313 404.927 318.351 404.546 318.31 404.169L308.55 315.013L299.15 318.484Z" fill="#263238"/>
<path d="M347.17 289.42L361.09 375.838C361.19 376.469 361.508 377.043 361.986 377.458C362.464 377.872 363.072 378.099 363.7 378.098C364.073 378.098 364.442 378.017 364.782 377.861C365.123 377.706 365.427 377.479 365.675 377.196C365.923 376.912 366.11 376.578 366.223 376.216C366.336 375.854 366.372 375.472 366.33 375.095L356.57 285.949L347.17 289.42Z" fill="#263238"/>
<path d="M277.8 298.277L264.07 372.743C263.978 373.265 263.708 373.738 263.307 374.077C262.906 374.416 262.401 374.6 261.88 374.596C261.559 374.595 261.243 374.524 260.951 374.388C260.66 374.251 260.401 374.053 260.191 373.806C259.982 373.559 259.827 373.269 259.737 372.956C259.647 372.642 259.624 372.313 259.67 371.99L269.81 302.97L277.8 298.277Z" fill="#263238"/>
<path d="M326.36 270.495L312.71 344.504C312.618 345.026 312.348 345.498 311.947 345.837C311.546 346.176 311.041 346.36 310.52 346.357C310.2 346.356 309.885 346.285 309.594 346.149C309.304 346.013 309.045 345.816 308.836 345.57C308.626 345.324 308.471 345.035 308.38 344.723C308.29 344.411 308.266 344.083 308.31 343.761L318.37 275.178L326.36 270.495Z" fill="#263238"/>
<path d="M322.4 264.856C319.252 263.438 316.531 261.195 314.512 258.357C312.494 255.519 311.251 252.187 310.91 248.7C308.7 226.019 300.85 179.293 274.27 194.848C241.45 214.047 253.2 269.803 257.97 287.679C259.03 291.707 261.097 295.386 263.97 298.358C269.9 304.466 282.17 314.911 303.05 323.808C305.611 324.897 308.46 325.07 311.13 324.297C321.5 321.294 348.59 312.081 362.13 294.469C362.896 293.471 363.245 292.205 363.098 290.946C362.952 289.688 362.324 288.539 361.35 287.751C355.88 283.332 343.51 274.445 322.4 264.856Z" fill="#CBDF02"/>
<path opacity="0.5" d="M322.4 264.856C319.252 263.438 316.531 261.195 314.512 258.357C312.494 255.519 311.251 252.187 310.91 248.7C308.7 226.019 300.85 179.293 274.27 194.848C241.45 214.047 253.2 269.803 257.97 287.679C259.03 291.707 261.097 295.386 263.97 298.358C269.9 304.466 282.17 314.911 303.05 323.808C305.611 324.897 308.46 325.07 311.13 324.297C321.5 321.294 348.59 312.081 362.13 294.469C362.896 293.471 363.245 292.205 363.098 290.946C362.952 289.688 362.324 288.539 361.35 287.751C355.88 283.332 343.51 274.445 322.4 264.856Z" fill="black"/>
<path d="M363.11 291.283C363.168 292.437 362.813 293.573 362.11 294.48C361.39 295.426 360.62 296.332 359.83 297.228C359.39 297.717 358.95 298.195 358.49 298.663C358.04 299.132 357.58 299.59 357.11 300.048L355.69 301.392C355.2 301.829 354.69 302.267 354.2 302.695C346.53 309.241 337.2 314.229 328.93 317.822L327.39 318.484L327.23 318.545L325.81 319.135L325.56 319.227L324.24 319.756L323.94 319.879L322.71 320.347L322.35 320.479L321.21 320.907L320.8 321.059L319.75 321.436L319.32 321.589L318.32 321.925L317.85 322.088L316.97 322.383L316.47 322.556L315.68 322.81L315.14 322.984L314.46 323.207L313.88 323.381L313.31 323.564L312.6 323.778L312.24 323.879C311.9 323.991 311.56 324.083 311.24 324.175C308.57 324.948 305.721 324.775 303.16 323.686C282.28 314.778 270.01 304.344 264.08 298.236C261.208 295.264 259.14 291.585 258.08 287.557C253.31 269.681 241.56 213.925 274.38 194.726C274.96 194.393 275.53 194.088 276.09 193.809L276.46 193.626C277.02 193.362 277.56 193.117 278.1 192.903L278.26 192.842C278.77 192.649 279.26 192.476 279.78 192.333L280.01 192.262C280.55 192.109 281.08 191.987 281.6 191.885H281.74C282.776 191.697 283.829 191.622 284.88 191.662H284.94C285.954 191.7 286.961 191.857 287.94 192.13C282.7 189.778 276.3 189.88 269.94 193.596C237.12 212.795 248.87 268.551 253.64 286.427L254.45 289.481C256.078 295.686 259.678 301.166 264.69 305.067L273.21 311.694C282.361 318.796 292.374 324.667 303 329.163C305.568 330.264 308.428 330.444 311.11 329.672C321.47 326.669 348.58 317.456 362.11 299.844C362.694 299.095 363.043 298.183 363.11 297.228V291.273V291.283Z" fill="#CBDF02"/>
<path opacity="0.6" d="M363.11 291.283C363.168 292.437 362.813 293.573 362.11 294.48C361.39 295.426 360.62 296.332 359.83 297.228C359.39 297.717 358.95 298.195 358.49 298.663C358.04 299.132 357.58 299.59 357.11 300.048L355.69 301.392C355.2 301.829 354.69 302.267 354.2 302.695C346.53 309.241 337.2 314.229 328.93 317.822L327.39 318.484L327.23 318.545L325.81 319.135L325.56 319.227L324.24 319.756L323.94 319.879L322.71 320.347L322.35 320.479L321.21 320.907L320.8 321.059L319.75 321.436L319.32 321.589L318.32 321.925L317.85 322.088L316.97 322.383L316.47 322.556L315.68 322.81L315.14 322.984L314.46 323.207L313.88 323.381L313.31 323.564L312.6 323.778L312.24 323.879C311.9 323.991 311.56 324.083 311.24 324.175C308.57 324.948 305.721 324.775 303.16 323.686C282.28 314.778 270.01 304.344 264.08 298.236C261.208 295.264 259.14 291.585 258.08 287.557C253.31 269.681 241.56 213.925 274.38 194.726C274.96 194.393 275.53 194.088 276.09 193.809L276.46 193.626C277.02 193.362 277.56 193.117 278.1 192.903L278.26 192.842C278.77 192.649 279.26 192.476 279.78 192.333L280.01 192.262C280.55 192.109 281.08 191.987 281.6 191.885H281.74C282.776 191.697 283.829 191.622 284.88 191.662H284.94C285.954 191.7 286.961 191.857 287.94 192.13C282.7 189.778 276.3 189.88 269.94 193.596C237.12 212.795 248.87 268.551 253.64 286.427L254.45 289.481C256.078 295.686 259.678 301.166 264.69 305.067L273.21 311.694C282.361 318.796 292.374 324.667 303 329.163C305.568 330.264 308.428 330.444 311.11 329.672C321.47 326.669 348.58 317.456 362.11 299.844C362.694 299.095 363.043 298.183 363.11 297.228V291.273V291.283Z" fill="black"/>
<path d="M381.21 355.081C378.97 340.534 376.1 317.283 374.46 303.54C374.353 302.637 374.203 301.741 374.01 300.852C373.147 297.059 371.529 293.486 369.257 290.354C366.985 287.222 364.107 284.596 360.8 282.64L327.14 262.28L304.29 250.064C304.29 250.064 298.21 268.001 305.29 278.975C311.17 288.137 337.13 299.417 344.85 303.234C352.57 307.052 352.73 308.08 352.57 313.18C352.41 318.28 352.4 324.775 361.88 345.115C364.61 350.958 366.51 355.295 367.83 358.685C372.562 359.057 377.278 357.787 381.21 355.081Z" fill="#CBDF02"/>
<path opacity="0.7" d="M381.21 355.081C378.97 340.534 376.1 317.283 374.46 303.54C374.299 302.19 374.045 300.853 373.7 299.539C371.731 292.431 367.123 286.381 360.85 282.671L327.14 262.239L304.29 250.023C304.29 250.023 298.21 267.961 305.29 278.935C311.17 288.097 337.13 299.376 344.85 303.194C352.57 307.011 352.73 308.039 352.57 313.139C352.41 318.24 352.4 324.734 361.88 345.074C364.61 350.917 366.51 355.254 367.83 358.644C372.557 359.028 377.273 357.773 381.21 355.081Z" fill="black"/>
<path d="M370.8 370.483C370.786 371.087 370.927 371.684 371.21 372.214C372.552 374.522 374.262 376.586 376.27 378.322C380.81 382.486 395.84 398.784 401.12 388.665C401.12 388.665 385.59 373.527 383.54 367.287C382.524 363.266 381.746 359.187 381.21 355.071C377.265 357.76 372.542 359.009 367.81 358.613C370.72 365.994 370.85 368.386 370.8 370.483Z" fill="#FFA8A7"/>
<path d="M387 369.486L386.57 368.173C386.397 367.69 386.052 367.292 385.603 367.058C385.154 366.824 384.635 366.771 384.15 366.91L377.86 368.885C377.465 369.009 377.12 369.259 376.875 369.599C376.63 369.938 376.499 370.348 376.5 370.768V371.41C376.497 371.713 376.377 372.003 376.165 372.217C375.954 372.43 375.668 372.55 375.37 372.55C374.038 372.551 372.747 372.079 371.72 371.216L370.84 370.483V368.244C370.273 368.621 369.813 369.142 369.506 369.757C369.198 370.371 369.055 371.057 369.09 371.746C369.17 373.263 369.24 375.115 369.18 375.818C369.08 377.161 367.85 382.76 369.32 384.42C370.79 386.079 374.09 386.273 378.17 385.825C382.25 385.377 386.71 389.459 390.49 390.976C394.27 392.493 409.93 395.75 409.89 385.56C409.89 382.964 407.36 381.905 404.89 380.989C402.42 380.073 393.48 376.866 391.19 374.942C390.27 374.163 389.417 373.304 388.64 372.377C387.911 371.533 387.354 370.55 387 369.486Z" fill="#455A64"/>
<path d="M390.45 391.006C386.67 389.489 382.21 385.407 378.13 385.855C374.05 386.303 370.75 386.11 369.28 384.45C368.809 383.761 368.564 382.938 368.58 382.099C368.51 383.666 368.63 385.153 369.28 385.906C370.75 387.565 374.05 387.759 378.13 387.311C382.21 386.863 386.67 390.955 390.45 392.462C394.23 393.969 409.89 397.236 409.85 387.046C409.84 386.899 409.82 386.753 409.79 386.608C408.81 395.516 394.1 392.462 390.45 391.006Z" fill="#263238"/>
<path d="M350.64 372.733C348.39 358.196 345.53 334.945 343.88 321.192C343.018 313.965 339.512 307.335 334.06 302.624L293.67 267.665L272.08 267.248C272.08 267.248 267.63 285.572 274.69 296.536C280.58 305.698 306.53 316.987 314.25 320.795C321.97 324.602 322.13 325.651 321.97 330.741C321.81 335.831 321.8 342.336 331.29 362.675C334.01 368.529 335.91 372.855 337.23 376.245C341.961 376.647 346.687 375.409 350.64 372.733Z" fill="#CBDF02"/>
<path opacity="0.7" d="M350.64 372.733C348.39 358.196 345.53 334.945 343.88 321.192C343.018 313.965 339.512 307.335 334.06 302.624L293.67 267.665L272.08 267.248C272.08 267.248 267.63 285.572 274.69 296.536C280.58 305.698 306.53 316.987 314.25 320.795C321.97 324.602 322.13 325.651 321.97 330.741C321.81 335.831 321.8 342.336 331.29 362.675C334.01 368.529 335.91 372.855 337.23 376.245C341.961 376.647 346.687 375.409 350.64 372.733Z" fill="black"/>
<path d="M340.21 386.822C340.21 387.433 339.8 389.235 340.63 389.876C341.69 390.68 342.7 393.256 345.7 395.984C350.23 400.148 355.02 391.179 352.96 384.959C351.949 380.938 351.175 376.859 350.64 372.743C346.69 375.43 341.965 376.678 337.23 376.286C340.15 383.636 340.27 384.735 340.21 386.822Z" fill="#FFA8A7"/>
<path d="M313.52 191.427C316.61 190.928 319.774 191.56 322.449 193.211C325.124 194.863 327.137 197.427 328.13 200.447C329.556 204.808 330.473 209.325 330.86 213.905C332.03 228.004 332.35 235.049 332.35 235.049L346.26 241.472C346.26 241.472 338.75 241.839 339.26 252.67L321.93 248.222L313.52 191.427Z" fill="#FFA8A7"/>
<path d="M332.86 226.528C330.81 211.258 330 203.267 328.24 199.48C327.032 196.649 324.923 194.315 322.252 192.854C319.582 191.393 316.506 190.89 313.52 191.427L318.76 233.369L319.43 233.308C324.07 232.842 328.441 230.872 331.9 227.689L332.86 226.528Z" fill="#CBDF02"/>
<path opacity="0.2" d="M332.86 226.528C330.81 211.258 330 203.267 328.24 199.48C327.032 196.649 324.923 194.315 322.252 192.854C319.582 191.393 316.506 190.89 313.52 191.427L318.76 233.369L319.43 233.308C324.07 232.842 328.441 230.872 331.9 227.689L332.86 226.528Z" fill="black"/>
<path d="M332.35 235.049C330.787 235.538 329.373 236.424 328.24 237.624C328.24 237.624 329.92 234.377 332.24 233.369L332.35 235.049Z" fill="#F28F8F"/>
<path d="M280.1 203.796L295.66 196.12L308.48 191.611C308.48 191.611 318.76 188.282 321.38 202.218C323.55 213.671 323.83 257.19 323.83 257.19L323.6 261.944C323.6 261.944 317.67 278.863 296.48 280.268C275.29 281.673 271.16 272.572 271.16 272.572C271.16 272.572 269 214.984 280.1 203.796Z" fill="#CBDF02"/>
<path d="M329.13 157.304C329.13 157.304 333.94 169.856 327.3 175.384C320.66 180.911 323 158.658 323 158.658L329.13 157.304Z" fill="#263238"/>
<path d="M370.81 229.063L223 315.939V334.762V426.229C223.007 426.592 223.116 426.945 223.315 427.246C223.513 427.548 223.793 427.785 224.12 427.929C224.965 428.369 225.901 428.598 226.85 428.598C227.799 428.598 228.735 428.369 229.58 427.929C229.905 427.783 230.183 427.546 230.379 427.244C230.576 426.943 230.684 426.591 230.69 426.229V339.292L310.83 386.354V478.717C310.839 479.078 310.949 479.429 311.148 479.729C311.346 480.028 311.624 480.263 311.95 480.407C312.795 480.847 313.731 481.076 314.68 481.076C315.629 481.076 316.565 480.847 317.41 480.407C317.736 480.263 318.014 480.028 318.212 479.729C318.411 479.429 318.521 479.078 318.53 478.717V386.354L454.76 306.288V393.836C454.771 394.198 454.885 394.549 455.087 394.847C455.289 395.145 455.571 395.377 455.9 395.516C456.745 395.956 457.681 396.185 458.63 396.185C459.579 396.185 460.515 395.956 461.36 395.516C461.686 395.373 461.965 395.138 462.164 394.839C462.363 394.539 462.472 394.188 462.48 393.826V282.956L370.81 229.063Z" fill="#455A64"/>
<path d="M317.41 480.427C316.565 480.867 315.629 481.096 314.68 481.096C313.731 481.096 312.795 480.867 311.95 480.427C310.44 479.542 310.44 478.106 311.95 477.221C312.795 476.781 313.731 476.552 314.68 476.552C315.629 476.552 316.565 476.781 317.41 477.221C318.92 478.106 318.92 479.542 317.41 480.427Z" fill="#455A64"/>
<path d="M318.55 384.104H310.83V478.737H318.55V384.104Z" fill="#37474F"/>
<path d="M226.87 428.601C229.002 428.601 230.73 427.585 230.73 426.331C230.73 425.077 229.002 424.061 226.87 424.061C224.738 424.061 223.01 425.077 223.01 426.331C223.01 427.585 224.738 428.601 226.87 428.601Z" fill="#455A64"/>
<path d="M230.73 331.616H223.01V426.249H230.73V331.616Z" fill="#263238"/>
<path d="M461.36 395.516C460.515 395.956 459.579 396.185 458.63 396.185C457.681 396.185 456.745 395.956 455.9 395.516C454.39 394.63 454.39 393.195 455.9 392.309C456.745 391.87 457.681 391.64 458.63 391.64C459.579 391.64 460.515 391.87 461.36 392.309C462.87 393.205 462.87 394.641 461.36 395.516Z" fill="#455A64"/>
<path d="M462.5 299.203H454.78V393.836H462.5V299.203Z" fill="#37474F"/>
<path d="M367 323.91C366.241 324.302 365.401 324.506 364.55 324.506C363.699 324.506 362.859 324.302 362.1 323.91C360.75 323.116 360.75 321.874 362.1 321.039C362.858 320.643 363.698 320.436 364.55 320.436C365.402 320.436 366.242 320.643 367 321.039C368.31 321.833 368.31 323.116 367 323.91Z" fill="#455A64"/>
<path d="M367.98 243.427H361.05V322.403H367.98V243.427Z" fill="#455A64"/>
<path d="M223 315.939V334.762L314.69 388.655V369.822L223 315.939Z" fill="#263238"/>
<path d="M462.5 282.956L314.69 369.822V388.655L462.5 301.779V282.956Z" fill="#37474F"/>
<path d="M370.81 229.063L223 315.939L314.69 369.822L462.5 282.956L370.81 229.063Z" fill="#455A64"/>
<path d="M296.66 287.689L330.28 307.449L386.17 274.537L352.56 254.38L296.66 287.689Z" fill="#EBEBEB"/>
<path d="M326.66 282.06L339.27 274.649L331.37 270.007L318.76 277.418L326.66 282.06Z" fill="#E0E0E0"/>
<path d="M331.71 302.512L314.72 292.332L347.92 271.87L331.71 302.512Z" fill="#E0E0E0"/>
<path d="M341.22 239.029L354.67 245.453C358.688 246.485 362.651 247.732 366.54 249.189C366.54 249.189 375.9 253.077 376.33 255.633C376.76 258.188 369.33 264.347 362.76 261.354C361.043 260.417 359.205 259.732 357.3 259.318C355.55 259.124 350.3 258.3 346.55 254.625L330.86 250.471C330.86 250.471 330.08 240.617 341.22 239.029Z" fill="#FFA8A7"/>
<path d="M349.93 258.086C351.48 259.786 355.93 264.072 356.93 265.314C357.93 266.556 360.19 263.369 356.18 258.615C352.709 257.321 349.444 255.514 346.49 253.251C347.514 254.95 348.664 256.566 349.93 258.086Z" fill="#FFA8A7"/>
<path d="M311.62 176.453H295.66V196.12H311.62V176.453Z" fill="#FFA8A7"/>
<path d="M311.63 196.12C308.375 194.883 305.4 192.987 302.885 190.546C300.371 188.105 298.368 185.17 297 181.919V176.453H311.67L311.63 196.12Z" fill="#F28F8F"/>
<path d="M317 150.483C317 150.483 331.52 152.265 328.19 177.521C326.65 189.198 323.58 195.102 314.74 194.105C304.74 192.965 290.87 185.044 293.02 165.031C295.17 145.017 317 150.483 317 150.483Z" fill="#FFA8A7"/>
<path d="M317.81 173.002L317.29 181.726L322.4 180.474L317.81 173.002Z" fill="#F28F8F"/>
<path d="M310.21 172.218C310.189 172.57 310.271 172.92 310.445 173.224C310.62 173.529 310.879 173.774 311.19 173.928C311.502 174.083 311.851 174.139 312.194 174.092C312.537 174.044 312.859 173.894 313.118 173.66C313.377 173.426 313.562 173.119 313.65 172.778C313.737 172.437 313.724 172.077 313.611 171.744C313.497 171.411 313.29 171.119 313.014 170.907C312.738 170.694 312.406 170.569 312.06 170.548C311.597 170.52 311.143 170.68 310.796 170.993C310.449 171.306 310.238 171.747 310.21 172.218Z" fill="#263238"/>
<path d="M321.76 171.699C321.739 172.05 321.821 172.4 321.995 172.704C322.169 173.008 322.428 173.253 322.738 173.407C323.049 173.562 323.398 173.619 323.741 173.572C324.083 173.525 324.405 173.376 324.664 173.143C324.923 172.91 325.109 172.604 325.198 172.264C325.287 171.924 325.275 171.564 325.163 171.231C325.051 170.898 324.845 170.606 324.57 170.392C324.296 170.178 323.965 170.052 323.62 170.029C323.39 170.014 323.159 170.045 322.941 170.121C322.723 170.197 322.522 170.315 322.349 170.471C322.177 170.626 322.036 170.814 321.934 171.025C321.833 171.235 321.774 171.464 321.76 171.699Z" fill="#263238"/>
<path d="M325.86 168.237L322.57 165.957C322.57 165.957 323.96 164.654 325.22 165.57C325.578 165.897 325.831 166.327 325.945 166.803C326.059 167.279 326.03 167.779 325.86 168.237Z" fill="#263238"/>
<path d="M311.42 167.84L307.87 169.652C307.87 169.652 307.43 167.779 308.82 167.118C309.274 166.956 309.766 166.939 310.23 167.068C310.694 167.197 311.109 167.466 311.42 167.84Z" fill="#263238"/>
<path d="M317.54 185.268C315.542 185.288 313.594 184.625 312.01 183.385C312.01 183.385 311.45 186.378 313.89 187.101C316.33 187.824 317.54 185.268 317.54 185.268Z" fill="#F28F8F"/>
<path d="M295.49 172.798C295.49 172.798 297.72 177.532 299.1 177.369C300.48 177.206 299.1 159.238 301.96 159.126C304.82 159.014 318.32 165.835 330.25 157.029C334.84 153.649 335.75 145.017 333 145.831C330.25 146.646 326.54 149.099 321.53 148.753C316.52 148.407 298.98 140.12 294.63 151.807C294.63 151.807 284.93 151.003 288.57 170.609C289.48 175.485 292.34 187.559 295.66 188.75L295.49 172.798Z" fill="#263238"/>
<path d="M296.28 177.114C296.335 175.634 296.065 174.159 295.49 172.798C295.202 171.96 294.681 171.225 293.99 170.683C293.3 170.141 292.469 169.815 291.6 169.744C287.12 169.622 286.51 174.02 286.6 175.577C286.76 179.649 290.03 184.128 296.11 184.301L296.28 177.114Z" fill="#FFA8A7"/>
<path d="M297.66 265.12L309.1 274.374C311.056 274.562 312.995 274.902 314.9 275.392C317.09 276.054 322.83 278.202 324.35 278.538C325.87 278.874 323.91 281.592 319.93 280.574C319.93 280.574 328.27 286.386 328.16 288.972C328.05 291.558 319.49 295.976 313.71 291.639C312.221 290.372 310.569 289.317 308.8 288.504C307.12 287.944 302.19 286 299.26 281.602L289.26 276.298C289.26 276.298 286.44 264.275 297.66 265.12Z" fill="#FFA8A7"/>
<path d="M285.18 201.292C285.18 201.292 291.85 206.555 287.75 222.914C283.65 239.273 281.46 253.373 281.46 253.373L297.66 265.12C295.442 266.109 293.508 267.655 292.038 269.614C290.569 271.573 289.613 273.88 289.26 276.318C289.26 276.318 263.72 266.138 263.2 259.532C262.68 252.925 268.53 224.563 269.42 219.341C270.31 214.119 274.85 203.766 285.18 201.292Z" fill="#FFA8A7"/>
<path d="M281.46 253.373C279.44 252.97 277.361 252.99 275.35 253.434C277.267 252.374 279.419 251.831 281.6 251.856L281.46 253.373Z" fill="#F28F8F"/>
<path d="M394 236.84L388.15 275.779C388.158 275.802 388.158 275.827 388.15 275.85L330 310.126C329.986 310.134 329.969 310.137 329.953 310.136C329.937 310.135 329.922 310.129 329.908 310.12C329.895 310.11 329.884 310.097 329.878 310.082C329.871 310.067 329.868 310.051 329.87 310.035L335.54 272.267C335.66 271.462 335.952 270.693 336.394 270.014C336.836 269.336 337.418 268.763 338.1 268.337L391.36 235.089C391.64 234.903 391.966 234.803 392.301 234.803C392.635 234.802 392.962 234.901 393.242 235.087C393.522 235.272 393.743 235.537 393.878 235.849C394.012 236.16 394.055 236.505 394 236.84Z" fill="#FAFAFA"/>
<path d="M330 310.126L299 291.802C298.285 291.38 297.692 290.774 297.28 290.045C296.868 289.316 296.65 288.49 296.65 287.649L330.27 307.408L330 310.126Z" fill="#E0E0E0"/>
<path d="M360.37 274.374C360.37 277.163 362.29 278.283 364.65 276.899C365.898 276.072 366.937 274.957 367.682 273.644C368.428 272.332 368.859 270.859 368.94 269.345C368.94 266.556 367.02 265.436 364.65 266.82C363.405 267.65 362.369 268.766 361.625 270.078C360.882 271.39 360.452 272.862 360.37 274.374Z" fill="#E0E0E0"/>
<path d="M296.17 157.518C296.17 157.518 293.53 153.548 295.17 152.265C296.81 150.982 298 155.064 296.17 157.518Z" fill="#263238"/>
<path d="M296.61 158.322C296.61 158.322 291.95 157.732 292.06 155.655C292.17 153.578 296 155.329 296.61 158.322Z" fill="#263238"/>
<path d="M295.66 196.12C295.66 196.12 299.09 205.282 306.99 204.142C314.89 203.002 311.63 196.12 311.63 196.12H295.66Z" fill="#FFA8A7"/>
<path d="M285.18 201.292C285.18 201.292 290.38 203.827 289.58 214.475C288.78 225.123 284.65 246.583 284.65 246.583C284.65 246.583 266.04 254.258 264.26 243.437C263.81 240.637 268.5 214.75 272.51 209.273C273.982 207.14 275.864 205.333 278.042 203.961C280.219 202.589 282.648 201.681 285.18 201.292Z" fill="#CBDF02"/>
<path opacity="0.2" d="M285.18 201.292C285.18 201.292 290.38 203.827 289.58 214.475C288.78 225.123 284.65 246.583 284.65 246.583C284.65 246.583 266.04 254.258 264.26 243.437C263.81 240.637 268.5 214.75 272.51 209.273C273.982 207.14 275.864 205.333 278.042 203.961C280.219 202.589 282.648 201.681 285.18 201.292Z" fill="black"/>
<path d="M340.63 387.372C341.328 388.449 342.399 389.22 343.63 389.53C344.76 389.713 342.48 386.731 345.2 385.529C347.92 384.328 354.15 382.689 354.71 385.071L355.4 388.044C356.05 390.854 357.369 393.458 359.24 395.628C361.056 397.865 363.123 399.878 365.4 401.624C368.96 403.955 374.81 409.605 367.3 414.42C359.79 419.235 350.57 415.163 348.76 409.697C346.95 404.23 345.04 402.642 344.08 401.736C342.057 400.291 340.615 398.151 340.02 395.709C339.532 393.291 339.198 390.842 339.02 388.38C338.982 387.883 339.078 387.384 339.296 386.938C339.514 386.492 339.848 386.114 340.26 385.845L340.63 387.372Z" fill="#455A64"/>
<path d="M367.34 414.4C359.83 419.205 350.61 415.143 348.8 409.676C346.99 404.21 345.08 402.622 344.12 401.716C342.425 400.468 341.122 398.745 340.37 396.758C340.37 396.9 340.37 397.063 340.37 397.206C340.66 401.94 343.51 403.049 344.47 403.965C345.43 404.882 347.01 406.368 348.82 411.845C350.63 417.322 360.15 420.722 367.65 415.917C371.3 413.585 371.79 411.051 370.93 408.791C371.11 410.633 370.19 412.578 367.34 414.4Z" fill="#263238"/>
<path d="M331.26 341.725L307.34 355.814L277.14 338.06L301.14 323.971C301.454 323.791 301.809 323.696 302.17 323.696C302.531 323.696 302.886 323.791 303.2 323.971L331.29 340.483C331.394 340.55 331.48 340.643 331.538 340.753C331.596 340.863 331.625 340.987 331.622 341.113C331.619 341.238 331.584 341.36 331.52 341.467C331.457 341.575 331.367 341.663 331.26 341.725Z" fill="#CBDF02"/>
<path opacity="0.7" d="M331.26 341.725L307.34 355.814L277.14 338.06L301.14 323.971C301.454 323.791 301.809 323.696 302.17 323.696C302.531 323.696 302.886 323.791 303.2 323.971L331.29 340.483C331.394 340.55 331.48 340.643 331.538 340.753C331.596 340.863 331.625 340.987 331.622 341.113C331.619 341.238 331.584 341.36 331.52 341.467C331.457 341.575 331.367 341.663 331.26 341.725Z" fill="black"/>
<path d="M329.6 341.216L307.34 354.297L279.23 337.785L301.54 324.673C301.829 324.499 302.159 324.406 302.495 324.406C302.831 324.406 303.161 324.499 303.45 324.673L329.6 340.035C329.702 340.095 329.786 340.181 329.845 340.285C329.904 340.388 329.935 340.506 329.935 340.625C329.935 340.745 329.904 340.863 329.845 340.966C329.786 341.07 329.702 341.156 329.6 341.216Z" fill="white"/>
<path d="M307.34 354.297V351.742L329.94 338.467V340.636L307.34 354.297Z" fill="white"/>
<path d="M307.34 354.297V351.742L279.23 335.23V337.785L307.34 354.297Z" fill="#E0E0E0"/>
<path d="M331.26 337.683L307.34 351.742L277.14 333.998L301.14 319.909C301.454 319.729 301.809 319.634 302.17 319.634C302.531 319.634 302.886 319.729 303.2 319.909L331.26 336.472C331.359 336.538 331.44 336.627 331.497 336.733C331.553 336.839 331.583 336.957 331.583 337.078C331.583 337.198 331.553 337.316 331.497 337.422C331.44 337.528 331.359 337.618 331.26 337.683Z" fill="#CBDF02"/>
<path opacity="0.5" d="M331.26 337.683L307.34 351.742L277.14 333.998L301.14 319.909C301.454 319.729 301.809 319.634 302.17 319.634C302.531 319.634 302.886 319.729 303.2 319.909L331.26 336.472C331.359 336.538 331.44 336.627 331.497 336.733C331.553 336.839 331.583 336.957 331.583 337.078C331.583 337.198 331.553 337.316 331.497 337.422C331.44 337.528 331.359 337.618 331.26 337.683Z" fill="black"/>
<path d="M304.21 353.951C304.142 353.986 304.066 354.004 303.99 354.004C303.914 354.004 303.838 353.986 303.77 353.951C303.683 353.904 303.61 353.833 303.559 353.747C303.508 353.661 303.481 353.563 303.48 353.462V351.131C303.485 350.61 303.621 350.099 303.875 349.646C304.128 349.194 304.492 348.815 304.93 348.545L305.02 348.484C305.061 348.461 305.108 348.45 305.155 348.45C305.202 348.451 305.249 348.465 305.289 348.49C305.329 348.514 305.363 348.549 305.386 348.591C305.409 348.633 305.421 348.681 305.42 348.729C305.42 348.856 305.47 348.977 305.558 349.067C305.646 349.157 305.765 349.207 305.89 349.207C306.015 349.207 306.134 349.157 306.222 349.067C306.311 348.977 306.36 348.856 306.36 348.729C306.362 348.511 306.306 348.297 306.199 348.109C306.092 347.921 305.937 347.766 305.75 347.66C305.568 347.548 305.358 347.488 305.145 347.488C304.932 347.488 304.723 347.548 304.54 347.66L304.45 347.711C303.869 348.062 303.387 348.561 303.052 349.159C302.717 349.757 302.541 350.433 302.54 351.121V353.432C302.54 353.705 302.613 353.973 302.75 354.208C302.887 354.443 303.084 354.635 303.32 354.765C303.535 354.882 303.776 354.942 304.02 354.939C304.316 354.941 304.605 354.852 304.85 354.684C304.94 354.622 305.004 354.527 305.03 354.419L304.21 353.951Z" fill="white"/>
<path d="M299.74 351.325C299.672 351.36 299.596 351.378 299.52 351.378C299.444 351.378 299.368 351.36 299.3 351.325C299.213 351.277 299.14 351.207 299.089 351.121C299.038 351.035 299.011 350.936 299.01 350.836V348.525C299.013 348.002 299.148 347.489 299.402 347.034C299.656 346.58 300.02 346.199 300.46 345.929H300.55C300.591 345.906 300.638 345.894 300.685 345.894C300.732 345.894 300.779 345.906 300.82 345.929C300.86 345.954 300.892 345.988 300.915 346.029C300.938 346.07 300.95 346.116 300.95 346.163C300.95 346.29 301 346.412 301.088 346.502C301.176 346.591 301.295 346.642 301.42 346.642C301.545 346.642 301.664 346.591 301.752 346.502C301.841 346.412 301.89 346.29 301.89 346.163C301.883 345.955 301.824 345.751 301.717 345.573C301.61 345.394 301.459 345.247 301.28 345.145C301.098 345.033 300.888 344.974 300.675 344.974C300.462 344.974 300.253 345.033 300.07 345.145L299.98 345.196C299.399 345.547 298.917 346.046 298.582 346.644C298.247 347.242 298.071 347.918 298.07 348.607V350.917C298.07 351.191 298.143 351.459 298.28 351.693C298.417 351.928 298.614 352.121 298.85 352.251C299.065 352.368 299.306 352.427 299.55 352.424C299.846 352.426 300.135 352.337 300.38 352.17C300.47 352.107 300.534 352.013 300.56 351.905L299.74 351.325Z" fill="white"/>
<path d="M295.27 348.688C295.201 348.721 295.126 348.738 295.05 348.738C294.974 348.738 294.899 348.721 294.83 348.688C294.743 348.641 294.67 348.57 294.619 348.484C294.568 348.398 294.541 348.3 294.54 348.199V345.888C294.543 345.366 294.678 344.852 294.932 344.398C295.186 343.943 295.55 343.563 295.99 343.293L296.08 343.242C296.121 343.219 296.168 343.206 296.215 343.206C296.262 343.206 296.309 343.219 296.35 343.242C296.39 343.266 296.422 343.3 296.445 343.341C296.468 343.382 296.48 343.429 296.48 343.476C296.48 343.603 296.529 343.724 296.618 343.814C296.706 343.904 296.825 343.954 296.95 343.954C297.075 343.954 297.194 343.904 297.282 343.814C297.37 343.724 297.42 343.603 297.42 343.476C297.413 343.267 297.353 343.064 297.247 342.885C297.14 342.707 296.989 342.56 296.81 342.458C296.627 342.346 296.418 342.286 296.205 342.286C295.992 342.286 295.783 342.346 295.6 342.458L295.51 342.509C294.929 342.86 294.447 343.359 294.112 343.957C293.777 344.555 293.601 345.231 293.6 345.919V348.23C293.6 348.503 293.672 348.771 293.81 349.006C293.947 349.241 294.144 349.433 294.38 349.563C294.595 349.68 294.836 349.74 295.08 349.737C295.375 349.739 295.665 349.65 295.91 349.482C296 349.42 296.064 349.325 296.09 349.217L295.27 348.688Z" fill="white"/>
<path d="M290.8 346.072C290.731 346.104 290.656 346.121 290.58 346.121C290.504 346.121 290.429 346.104 290.36 346.072C290.273 346.024 290.2 345.954 290.149 345.868C290.098 345.782 290.071 345.684 290.07 345.583V343.272C290.073 342.749 290.208 342.236 290.462 341.782C290.716 341.327 291.08 340.946 291.52 340.676L291.61 340.625C291.651 340.602 291.698 340.59 291.745 340.59C291.792 340.59 291.839 340.602 291.88 340.625C291.92 340.65 291.952 340.684 291.975 340.725C291.998 340.766 292.01 340.812 292.01 340.86C292.01 340.986 292.06 341.108 292.148 341.198C292.236 341.288 292.355 341.338 292.48 341.338C292.605 341.338 292.724 341.288 292.812 341.198C292.9 341.108 292.95 340.986 292.95 340.86C292.943 340.651 292.883 340.447 292.777 340.269C292.67 340.09 292.519 339.943 292.34 339.842C292.157 339.729 291.948 339.67 291.735 339.67C291.522 339.67 291.313 339.729 291.13 339.842L291.04 339.892C290.459 340.244 289.977 340.743 289.642 341.34C289.307 341.938 289.131 342.615 289.13 343.303V345.614C289.13 345.887 289.202 346.155 289.34 346.39C289.477 346.624 289.674 346.817 289.91 346.947C290.125 347.064 290.366 347.123 290.61 347.12C290.906 347.122 291.195 347.034 291.44 346.866C291.53 346.803 291.594 346.709 291.62 346.601L290.8 346.072Z" fill="white"/>
<path d="M286.33 343.445C286.261 343.478 286.186 343.495 286.11 343.495C286.034 343.495 285.959 343.478 285.89 343.445C285.803 343.398 285.73 343.327 285.679 343.241C285.628 343.155 285.601 343.057 285.6 342.957V340.646C285.603 340.123 285.738 339.61 285.992 339.155C286.246 338.701 286.61 338.32 287.05 338.05H287.14C287.181 338.027 287.228 338.015 287.275 338.015C287.322 338.015 287.369 338.027 287.41 338.05C287.45 338.074 287.482 338.109 287.505 338.15C287.528 338.191 287.54 338.237 287.54 338.284C287.54 338.411 287.59 338.533 287.678 338.622C287.766 338.712 287.885 338.762 288.01 338.762C288.135 338.762 288.254 338.712 288.342 338.622C288.431 338.533 288.48 338.411 288.48 338.284C288.473 338.075 288.413 337.872 288.307 337.693C288.2 337.515 288.049 337.368 287.87 337.266C287.687 337.154 287.478 337.094 287.265 337.094C287.052 337.094 286.843 337.154 286.66 337.266L286.57 337.317C285.989 337.668 285.507 338.167 285.172 338.765C284.837 339.363 284.661 340.039 284.66 340.727V343.038C284.66 343.311 284.732 343.579 284.87 343.814C285.007 344.049 285.204 344.242 285.44 344.372C285.657 344.484 285.897 344.543 286.14 344.545C286.436 344.547 286.725 344.458 286.97 344.29C287.06 344.228 287.124 344.133 287.15 344.026L286.33 343.445Z" fill="white"/>
<path d="M281.86 340.819C281.791 340.852 281.716 340.869 281.64 340.869C281.564 340.869 281.489 340.852 281.42 340.819C281.333 340.771 281.26 340.701 281.209 340.615C281.158 340.529 281.131 340.431 281.13 340.33V337.999C281.133 337.476 281.268 336.963 281.522 336.508C281.776 336.054 282.14 335.673 282.58 335.403L282.67 335.352C282.711 335.329 282.758 335.317 282.805 335.317C282.852 335.317 282.899 335.329 282.94 335.352C282.981 335.375 283.015 335.409 283.038 335.45C283.061 335.492 283.072 335.539 283.07 335.586C283.07 335.713 283.119 335.835 283.208 335.925C283.296 336.014 283.415 336.065 283.54 336.065C283.665 336.065 283.784 336.014 283.872 335.925C283.96 335.835 284.01 335.713 284.01 335.586C283.999 335.375 283.936 335.169 283.826 334.99C283.715 334.81 283.561 334.662 283.379 334.56C283.197 334.458 282.992 334.405 282.783 334.407C282.575 334.408 282.371 334.464 282.19 334.568L282.1 334.629C281.519 334.981 281.037 335.48 280.702 336.077C280.367 336.675 280.191 337.351 280.19 338.04V340.351C280.19 340.624 280.262 340.892 280.4 341.127C280.537 341.361 280.734 341.554 280.97 341.684C281.187 341.796 281.427 341.856 281.67 341.857C281.965 341.859 282.255 341.771 282.5 341.603C282.59 341.54 282.654 341.446 282.68 341.338L281.86 340.819Z" fill="white"/>
<path d="M334.34 331.331L308.48 346.53L274.82 326.75L300.69 311.551L334.34 331.331Z" fill="#E6E6E6"/>
<path d="M335.83 330.832L308.81 343.781L276.89 321.192L303.92 308.253L335.83 330.832Z" fill="#FAFAFA"/>
<path d="M275.5 290.407H253.55L255.55 314.056C255.68 314.805 255.986 315.511 256.442 316.114C256.898 316.717 257.491 317.198 258.17 317.517C260.146 318.54 262.333 319.074 264.55 319.074C266.768 319.074 268.954 318.54 270.93 317.517C271.607 317.196 272.199 316.714 272.655 316.112C273.111 315.509 273.418 314.804 273.55 314.056L275.5 290.407Z" fill="#CBDF02"/>
<path d="M276.9 289.115V287.242H276.47C275.76 285.848 274.647 284.711 273.28 283.984C268.45 281.144 260.61 281.144 255.78 283.984C254.411 284.707 253.296 285.846 252.59 287.242H252.15V289.135C252.15 290.988 253.36 292.851 255.78 294.276C260.61 297.116 268.45 297.116 273.28 294.276C275.7 292.851 276.91 290.978 276.9 289.115Z" fill="#E0E0E0"/>
<path d="M273.28 292.494C268.45 295.335 260.61 295.335 255.78 292.494C250.95 289.654 250.94 285.053 255.78 282.213C260.62 279.372 268.45 279.362 273.28 282.213C278.11 285.063 278.11 289.644 273.28 292.494Z" fill="#EBEBEB"/>
<path d="M274.45 286.59V285.094H274.1C273.531 283.977 272.637 283.067 271.54 282.487C269.371 281.367 266.973 280.783 264.54 280.783C262.107 280.783 259.709 281.367 257.54 282.487C256.44 283.063 255.545 283.974 254.98 285.094H254.63V286.59C254.63 288.086 255.63 289.583 257.54 290.713C259.709 291.833 262.107 292.417 264.54 292.417C266.973 292.417 269.371 291.833 271.54 290.713C273.48 289.563 274.45 288.066 274.45 286.59Z" fill="#E0E0E0"/>
<path d="M271.54 289.278C269.371 290.398 266.973 290.982 264.54 290.982C262.107 290.982 259.709 290.398 257.54 289.278C253.66 287.007 253.66 283.312 257.54 281.042C259.709 279.921 262.107 279.337 264.54 279.337C266.973 279.337 269.371 279.921 271.54 281.042C275.41 283.312 275.41 287.007 271.54 289.278Z" fill="#F5F5F5"/>
<path d="M269.92 288.076C268.248 288.939 266.4 289.389 264.525 289.389C262.65 289.389 260.802 288.939 259.13 288.076C256.24 286.386 256.13 283.679 258.83 281.968C258.925 281.897 259.026 281.832 259.13 281.775C259.785 281.396 260.483 281.101 261.21 280.899C264.118 280.065 267.229 280.377 269.92 281.775C272.91 283.536 272.91 286.325 269.92 288.076Z" fill="#F0F0F0"/>
<path d="M259.13 282.64C260.802 281.772 262.653 281.32 264.53 281.32C266.407 281.32 268.258 281.772 269.93 282.64C270.471 282.898 270.949 283.276 271.328 283.746C271.707 284.217 271.978 284.767 272.12 285.358C272.35 284.065 271.61 282.722 269.93 281.734C268.255 280.875 266.406 280.427 264.53 280.427C262.654 280.427 260.805 280.875 259.13 281.734C257.44 282.752 256.71 284.065 256.93 285.358C257.074 284.766 257.346 284.215 257.726 283.745C258.107 283.274 258.587 282.897 259.13 282.64Z" fill="#E0E0E0"/>
<path d="M263.21 282.935L261 284.371L258.84 282.793V281.928C258.935 281.856 259.036 281.791 259.14 281.734C259.795 281.355 260.493 281.061 261.22 280.859V281.5L263.21 282.935Z" fill="#E0E0E0"/>
<path d="M523.86 144.07L399.38 70.8554C398.856 70.4619 398.221 70.2496 397.57 70.2496C396.919 70.2496 396.284 70.4619 395.76 70.8554L391.45 73.9094L394.39 77.615V179.771C394.39 183.518 396.63 187.915 399.39 189.483L522.64 261.924L522.87 265.904L527.41 262.738C527.931 262.24 528.333 261.626 528.586 260.945C528.839 260.264 528.936 259.534 528.87 258.809V153.731C528.86 149.985 526.62 145.638 523.86 144.07Z" fill="#CBDF02"/>
<path opacity="0.3" d="M523.86 144.07L399.38 70.8554C398.856 70.4619 398.221 70.2496 397.57 70.2496C396.919 70.2496 396.284 70.4619 395.76 70.8554L391.45 73.9094L394.39 77.615V179.771C394.39 183.518 396.63 187.915 399.39 189.483L522.64 261.924L522.87 265.904L527.41 262.738C527.931 262.24 528.333 261.626 528.586 260.945C528.839 260.264 528.936 259.534 528.87 258.809V153.731C528.86 149.985 526.62 145.638 523.86 144.07Z" fill="black"/>
<path d="M519.62 265.619L395.14 192.456C392.39 190.837 390.14 186.49 390.14 182.744V77.6659C390.14 73.9298 392.38 72.2094 395.14 73.828L519.62 146.992C522.38 148.61 524.62 152.957 524.62 156.703V261.771C524.62 265.517 522.38 267.248 519.62 265.619Z" fill="#CBDF02"/>
<path d="M519.62 265.619L395.14 192.456C392.39 190.837 390.14 186.49 390.14 182.744V77.6659C390.14 73.9298 392.38 72.2094 395.14 73.828L519.62 146.992C522.38 148.61 524.62 152.957 524.62 156.703V261.771C524.62 265.517 522.38 267.248 519.62 265.619Z" fill="#CBDF02"/>
<path d="M519.62 146.992L395.14 73.828C392.39 72.2094 390.14 73.9298 390.14 77.6659V82.7559L524.61 161.783V156.693C524.62 152.957 522.38 148.61 519.62 146.992Z" fill="#455A64"/>
<path d="M393.16 74.2352C393.685 74.2603 394.194 74.4215 394.64 74.7035L519.12 147.867C521.56 149.303 523.62 153.344 523.62 156.703V261.771C523.62 263.807 522.83 265.212 521.62 265.212C521.091 265.186 520.578 265.022 520.13 264.734L395.64 191.57C393.21 190.145 391.15 186.093 391.15 182.744V77.6659C391.15 75.579 391.94 74.2352 393.15 74.2352M393.15 73.2172C391.38 73.2172 390.15 74.8765 390.15 77.6659V182.754C390.15 186.5 392.39 190.847 395.15 192.466L519.62 265.619C520.222 265.999 520.912 266.21 521.62 266.23C523.39 266.23 524.62 264.56 524.62 261.771V156.703C524.62 152.957 522.38 148.559 519.62 146.992L395.14 73.828C394.539 73.445 393.849 73.234 393.14 73.2172H393.15Z" fill="#CBDF02"/>
<path d="M447.86 128.8C447.674 128.804 447.49 128.754 447.33 128.657L399.94 100.846C399.718 100.693 399.561 100.459 399.501 100.193C399.441 99.927 399.482 99.6475 399.617 99.4111C399.751 99.1748 399.969 98.9991 400.226 98.9196C400.482 98.8401 400.759 98.8627 401 98.9828L448.39 126.835C448.604 126.948 448.774 127.132 448.871 127.356C448.969 127.581 448.988 127.832 448.926 128.069C448.865 128.307 448.725 128.515 448.532 128.661C448.338 128.807 448.101 128.881 447.86 128.871V128.8Z" fill="white"/>
<path d="M514.53 168.034C514.343 168.034 514.159 167.981 514 167.881L478.9 147.256C478.656 147.113 478.478 146.877 478.405 146.601C478.332 146.324 478.369 146.029 478.51 145.78C478.651 145.532 478.882 145.35 479.154 145.276C479.426 145.202 479.716 145.24 479.96 145.383L515.06 166.018C515.274 166.131 515.444 166.315 515.541 166.539C515.639 166.764 515.658 167.015 515.596 167.252C515.535 167.489 515.395 167.698 515.202 167.844C515.008 167.99 514.771 168.064 514.53 168.054V168.034Z" fill="white"/>
<path d="M471.82 142.93C471.635 142.927 471.453 142.878 471.29 142.787L457 134.399C456.869 134.334 456.753 134.242 456.659 134.129C456.565 134.017 456.494 133.885 456.452 133.744C456.41 133.602 456.396 133.453 456.413 133.306C456.43 133.159 456.476 133.017 456.549 132.889C456.622 132.761 456.72 132.649 456.837 132.561C456.954 132.474 457.087 132.411 457.229 132.378C457.371 132.345 457.518 132.342 457.661 132.369C457.804 132.396 457.94 132.453 458.06 132.536L472.32 140.914C472.534 141.027 472.704 141.211 472.801 141.435C472.899 141.66 472.918 141.911 472.856 142.148C472.795 142.386 472.655 142.594 472.462 142.74C472.268 142.886 472.031 142.96 471.79 142.95L471.82 142.93Z" fill="white"/>
<path d="M447.86 196.405C447.674 196.404 447.492 196.355 447.33 196.263L399.94 168.41C399.718 168.257 399.561 168.024 399.501 167.758C399.441 167.492 399.482 167.212 399.617 166.976C399.751 166.739 399.969 166.564 400.226 166.484C400.482 166.405 400.759 166.427 401 166.547L448.39 194.39C448.633 194.534 448.809 194.771 448.88 195.048C448.952 195.325 448.912 195.619 448.77 195.866C448.683 196.033 448.551 196.172 448.391 196.267C448.23 196.363 448.046 196.411 447.86 196.405Z" fill="white"/>
<path d="M514.53 235.588C514.344 235.592 514.16 235.543 514 235.446L478.9 214.821C478.656 214.678 478.478 214.442 478.405 214.165C478.332 213.888 478.369 213.593 478.51 213.345C478.651 213.097 478.882 212.915 479.154 212.841C479.426 212.766 479.716 212.805 479.96 212.948L515.06 233.583C515.302 233.725 515.478 233.96 515.551 234.234C515.624 234.509 515.588 234.801 515.45 235.049C515.356 235.212 515.222 235.348 515.06 235.443C514.899 235.537 514.716 235.588 514.53 235.588Z" fill="white"/>
<path d="M471.82 210.484C471.634 210.488 471.45 210.439 471.29 210.342L457 201.964C456.869 201.899 456.753 201.807 456.659 201.694C456.565 201.581 456.494 201.45 456.452 201.308C456.41 201.167 456.396 201.018 456.413 200.871C456.43 200.724 456.476 200.582 456.549 200.454C456.622 200.325 456.72 200.214 456.837 200.126C456.954 200.038 457.087 199.976 457.229 199.943C457.371 199.91 457.518 199.907 457.661 199.934C457.804 199.961 457.94 200.018 458.06 200.101L472.32 208.479C472.562 208.622 472.738 208.856 472.811 209.13C472.884 209.405 472.848 209.697 472.71 209.945C472.619 210.104 472.489 210.237 472.333 210.331C472.178 210.426 472.001 210.478 471.82 210.484Z" fill="white"/>
<path d="M447.86 212.276C447.674 212.28 447.49 212.23 447.33 212.133L399.94 184.291C399.696 184.148 399.518 183.912 399.445 183.635C399.372 183.359 399.409 183.063 399.55 182.815C399.691 182.567 399.922 182.385 400.194 182.311C400.466 182.236 400.756 182.275 401 182.418L448.39 210.24C448.604 210.353 448.774 210.537 448.871 210.761C448.969 210.986 448.988 211.237 448.926 211.474C448.865 211.711 448.725 211.92 448.532 212.066C448.338 212.211 448.101 212.286 447.86 212.276Z" fill="white"/>
<path d="M499.59 242.694C499.404 242.698 499.22 242.648 499.06 242.551L478.9 230.702C478.769 230.637 478.653 230.545 478.559 230.432C478.465 230.32 478.394 230.188 478.352 230.047C478.31 229.905 478.296 229.756 478.313 229.609C478.33 229.462 478.376 229.32 478.449 229.192C478.522 229.064 478.62 228.952 478.737 228.864C478.854 228.776 478.987 228.714 479.129 228.681C479.271 228.648 479.418 228.645 479.561 228.672C479.704 228.699 479.84 228.756 479.96 228.839L500.12 240.688C500.241 240.758 500.347 240.851 500.432 240.963C500.517 241.075 500.579 241.202 500.615 241.339C500.652 241.475 500.661 241.617 500.643 241.757C500.625 241.897 500.58 242.032 500.51 242.154C500.416 242.318 500.282 242.454 500.12 242.548C499.959 242.643 499.776 242.693 499.59 242.694Z" fill="white"/>
<path d="M471.82 226.375C471.635 226.373 471.453 226.324 471.29 226.233L457 217.855C456.756 217.712 456.578 217.476 456.505 217.199C456.432 216.922 456.469 216.627 456.61 216.379C456.751 216.13 456.982 215.949 457.254 215.874C457.526 215.8 457.816 215.838 458.06 215.982L472.32 224.36C472.534 224.473 472.704 224.657 472.801 224.881C472.899 225.105 472.918 225.357 472.856 225.594C472.795 225.831 472.655 226.04 472.461 226.185C472.268 226.331 472.031 226.405 471.79 226.396L471.82 226.375Z" fill="white"/>
<path d="M424.23 123.354C424.043 123.354 423.859 123.301 423.7 123.201L399.94 109.244C399.757 109.078 399.636 108.852 399.598 108.604C399.561 108.357 399.608 108.104 399.734 107.889C399.859 107.674 400.054 107.51 400.285 107.424C400.516 107.339 400.768 107.338 401 107.422L424.76 121.379C425.003 121.523 425.179 121.76 425.25 122.037C425.322 122.314 425.282 122.608 425.14 122.855C425.047 123.015 424.914 123.145 424.753 123.233C424.593 123.321 424.412 123.363 424.23 123.354Z" fill="white"/>
<path d="M492.66 163.575C492.475 163.572 492.293 163.523 492.13 163.432L457 142.798C456.869 142.732 456.753 142.641 456.659 142.528C456.565 142.415 456.494 142.284 456.452 142.142C456.41 142.001 456.396 141.852 456.413 141.705C456.43 141.558 456.476 141.416 456.549 141.287C456.622 141.159 456.72 141.048 456.837 140.96C456.954 140.872 457.087 140.81 457.229 140.777C457.371 140.743 457.518 140.74 457.661 140.768C457.804 140.795 457.94 140.852 458.06 140.935L493.16 161.559C493.374 161.672 493.544 161.856 493.641 162.08C493.739 162.305 493.758 162.556 493.696 162.793C493.635 163.031 493.495 163.239 493.302 163.385C493.108 163.531 492.871 163.605 492.63 163.595L492.66 163.575Z" fill="white"/>
<path d="M448.19 137.433C448.004 137.436 447.82 137.387 447.66 137.29L433.4 128.912C433.156 128.769 432.978 128.533 432.905 128.256C432.832 127.979 432.869 127.684 433.01 127.436C433.151 127.187 433.382 127.006 433.654 126.932C433.926 126.857 434.216 126.896 434.46 127.039L448.72 135.417C448.963 135.561 449.139 135.798 449.21 136.075C449.282 136.352 449.242 136.646 449.1 136.893C449.013 137.06 448.881 137.199 448.72 137.295C448.56 137.39 448.376 137.438 448.19 137.433Z" fill="white"/>
<path d="M447.86 145.638C447.673 145.638 447.489 145.585 447.33 145.485L399.94 117.602C399.75 117.437 399.622 117.21 399.581 116.959C399.539 116.708 399.586 116.451 399.713 116.232C399.839 116.013 400.038 115.846 400.274 115.762C400.509 115.677 400.766 115.68 401 115.77L448.39 143.622C448.633 143.767 448.809 144.003 448.88 144.28C448.952 144.557 448.912 144.851 448.77 145.098C448.683 145.265 448.551 145.404 448.391 145.5C448.23 145.595 448.046 145.643 447.86 145.638Z" fill="white"/>
<path d="M488.78 169.683C488.594 169.687 488.41 169.637 488.25 169.54L478.9 164.043C478.769 163.978 478.653 163.886 478.559 163.774C478.465 163.661 478.394 163.53 478.352 163.388C478.31 163.246 478.296 163.097 478.313 162.95C478.33 162.803 478.376 162.661 478.449 162.533C478.522 162.405 478.62 162.294 478.737 162.206C478.854 162.118 478.987 162.055 479.129 162.022C479.271 161.989 479.418 161.986 479.561 162.013C479.704 162.04 479.84 162.097 479.96 162.18L489.31 167.677C489.552 167.82 489.728 168.054 489.801 168.329C489.874 168.603 489.838 168.896 489.7 169.143C489.606 169.307 489.472 169.443 489.31 169.537C489.149 169.632 488.966 169.682 488.78 169.683Z" fill="white"/>
<path d="M428.9 142.889C428.715 142.887 428.533 142.838 428.37 142.747L419 137.249C418.879 137.179 418.773 137.084 418.688 136.972C418.603 136.859 418.541 136.731 418.505 136.594C418.468 136.457 418.459 136.314 418.477 136.173C418.495 136.032 418.54 135.896 418.61 135.773C418.68 135.65 418.772 135.542 418.883 135.456C418.993 135.369 419.12 135.306 419.254 135.269C419.389 135.232 419.529 135.223 419.668 135.241C419.806 135.26 419.939 135.305 420.06 135.376L429.41 140.873C429.624 140.987 429.794 141.17 429.891 141.395C429.989 141.619 430.008 141.871 429.946 142.108C429.885 142.345 429.745 142.553 429.551 142.699C429.358 142.845 429.121 142.919 428.88 142.909L428.9 142.889Z" fill="white"/>
<path d="M471.82 159.717C471.635 159.714 471.453 159.665 471.29 159.574L457 151.196C456.879 151.125 456.773 151.031 456.688 150.918C456.603 150.806 456.541 150.677 456.505 150.54C456.468 150.403 456.459 150.26 456.477 150.119C456.495 149.979 456.54 149.843 456.61 149.72C456.68 149.597 456.772 149.489 456.883 149.403C456.993 149.316 457.12 149.253 457.254 149.216C457.389 149.179 457.529 149.169 457.668 149.188C457.806 149.206 457.939 149.252 458.06 149.323L472.32 157.701C472.534 157.814 472.704 157.998 472.801 158.222C472.899 158.447 472.918 158.698 472.856 158.935C472.795 159.172 472.655 159.381 472.461 159.527C472.268 159.673 472.031 159.747 471.79 159.737L471.82 159.717Z" fill="white"/>
<path d="M415.66 135.101C415.474 135.105 415.29 135.056 415.13 134.959L399.94 126.031C399.718 125.878 399.561 125.645 399.501 125.379C399.441 125.112 399.482 124.833 399.617 124.596C399.751 124.36 399.969 124.184 400.226 124.105C400.482 124.025 400.759 124.048 401 124.168L416.19 133.096C416.415 133.201 416.596 133.384 416.701 133.611C416.807 133.839 416.83 134.098 416.766 134.341C416.703 134.584 416.557 134.797 416.355 134.942C416.153 135.087 415.906 135.154 415.66 135.132V135.101Z" fill="white"/>
<path d="M448.19 154.25C448.004 154.254 447.82 154.204 447.66 154.107L433.4 145.699C433.269 145.634 433.153 145.542 433.059 145.429C432.965 145.317 432.894 145.185 432.852 145.044C432.81 144.902 432.796 144.753 432.813 144.606C432.83 144.459 432.876 144.317 432.949 144.189C433.022 144.061 433.12 143.949 433.237 143.861C433.354 143.773 433.487 143.711 433.629 143.678C433.771 143.645 433.918 143.642 434.061 143.669C434.204 143.696 434.34 143.753 434.46 143.836L448.72 152.214C448.934 152.327 449.104 152.511 449.201 152.735C449.299 152.96 449.318 153.211 449.256 153.448C449.195 153.685 449.055 153.894 448.862 154.04C448.668 154.185 448.431 154.26 448.19 154.25Z" fill="white"/>
<path d="M447.86 163.035C447.674 163.039 447.49 162.99 447.33 162.893L399.94 135.04C399.718 134.887 399.561 134.654 399.501 134.388C399.441 134.122 399.482 133.842 399.617 133.606C399.751 133.369 399.969 133.194 400.226 133.114C400.482 133.035 400.759 133.057 401 133.177L448.39 161.02C448.633 161.164 448.809 161.401 448.88 161.678C448.952 161.954 448.912 162.249 448.77 162.496C448.683 162.663 448.551 162.802 448.391 162.897C448.23 162.993 448.046 163.04 447.86 163.035Z" fill="white"/>
<path d="M514.53 202.218C514.346 202.228 514.162 202.186 514 202.096L478.9 181.471C478.656 181.328 478.478 181.092 478.405 180.816C478.332 180.539 478.369 180.244 478.51 179.995C478.651 179.747 478.882 179.565 479.154 179.491C479.426 179.417 479.716 179.455 479.96 179.598L515.06 200.233C515.302 200.376 515.478 200.61 515.551 200.884C515.624 201.159 515.588 201.452 515.45 201.699C515.354 201.859 515.218 201.991 515.057 202.082C514.896 202.173 514.714 202.22 514.53 202.218Z" fill="white"/>
<path d="M471.82 177.114C471.634 177.118 471.45 177.069 471.29 176.972L457 168.594C456.869 168.529 456.753 168.437 456.659 168.324C456.565 168.211 456.494 168.08 456.452 167.938C456.41 167.797 456.396 167.648 456.413 167.501C456.43 167.354 456.476 167.212 456.549 167.084C456.622 166.955 456.72 166.844 456.837 166.756C456.954 166.668 457.087 166.606 457.229 166.573C457.371 166.54 457.518 166.536 457.661 166.564C457.804 166.591 457.94 166.648 458.06 166.731L472.32 175.109C472.562 175.253 472.739 175.489 472.812 175.766C472.885 176.042 472.848 176.336 472.71 176.585C472.616 176.741 472.486 176.871 472.33 176.963C472.175 177.056 472 177.108 471.82 177.114Z" fill="white"/>
<path d="M424.23 157.538C424.044 157.542 423.86 157.492 423.7 157.396L399.94 143.439C399.696 143.296 399.518 143.06 399.445 142.783C399.372 142.506 399.409 142.211 399.55 141.963C399.691 141.714 399.922 141.533 400.194 141.459C400.466 141.384 400.756 141.423 401 141.566L424.76 155.533C424.974 155.646 425.144 155.83 425.241 156.054C425.339 156.278 425.358 156.53 425.296 156.767C425.235 157.004 425.095 157.213 424.902 157.358C424.708 157.504 424.471 157.578 424.23 157.569V157.538Z" fill="white"/>
<path d="M492.66 197.77C492.473 197.77 492.289 197.717 492.13 197.617L457 176.992C456.756 176.849 456.578 176.613 456.505 176.336C456.432 176.059 456.469 175.764 456.61 175.516C456.751 175.268 456.982 175.086 457.254 175.012C457.526 174.937 457.816 174.976 458.06 175.119L493.16 195.754C493.374 195.867 493.544 196.051 493.641 196.275C493.739 196.499 493.758 196.751 493.696 196.988C493.635 197.225 493.495 197.434 493.301 197.58C493.108 197.725 492.871 197.8 492.63 197.79L492.66 197.77Z" fill="white"/>
<path d="M448.19 171.627C448.005 171.625 447.823 171.576 447.66 171.485L433.4 163.096C433.269 163.031 433.153 162.94 433.059 162.827C432.965 162.714 432.894 162.583 432.852 162.441C432.81 162.3 432.796 162.151 432.813 162.004C432.83 161.856 432.876 161.714 432.949 161.586C433.022 161.458 433.12 161.347 433.237 161.259C433.354 161.171 433.487 161.109 433.629 161.075C433.771 161.042 433.918 161.039 434.061 161.066C434.204 161.094 434.34 161.151 434.46 161.233L448.72 169.612C448.963 169.756 449.139 169.993 449.21 170.27C449.282 170.546 449.242 170.841 449.1 171.088C449.013 171.255 448.881 171.394 448.72 171.489C448.56 171.585 448.376 171.632 448.19 171.627Z" fill="white"/>
<path d="M447.86 179.822C447.674 179.826 447.49 179.776 447.33 179.68L399.94 151.827C399.718 151.674 399.561 151.441 399.501 151.175C399.441 150.908 399.482 150.629 399.617 150.393C399.751 150.156 399.969 149.981 400.226 149.901C400.482 149.822 400.759 149.844 401 149.964L448.39 177.817C448.604 177.93 448.774 178.114 448.871 178.338C448.969 178.562 448.988 178.814 448.926 179.051C448.865 179.288 448.725 179.497 448.532 179.642C448.338 179.788 448.101 179.862 447.86 179.853V179.822Z" fill="white"/>
<path d="M488.78 203.878C488.595 203.875 488.413 203.826 488.25 203.735L478.9 198.238C478.769 198.173 478.653 198.081 478.559 197.968C478.465 197.856 478.394 197.724 478.352 197.583C478.31 197.441 478.296 197.292 478.313 197.145C478.33 196.998 478.376 196.856 478.449 196.728C478.522 196.6 478.62 196.488 478.737 196.4C478.854 196.312 478.987 196.25 479.129 196.217C479.271 196.184 479.418 196.181 479.561 196.208C479.704 196.235 479.84 196.292 479.96 196.375L489.31 201.862C489.524 201.975 489.694 202.159 489.791 202.383C489.889 202.607 489.908 202.859 489.846 203.096C489.785 203.333 489.645 203.542 489.452 203.688C489.258 203.833 489.021 203.908 488.78 203.898V203.878Z" fill="white"/>
<path d="M428.9 177.084C428.713 177.084 428.529 177.031 428.37 176.931L419 171.444C418.756 171.301 418.578 171.065 418.505 170.788C418.432 170.511 418.469 170.216 418.61 169.968C418.751 169.72 418.982 169.538 419.254 169.464C419.526 169.389 419.816 169.428 420.06 169.571L429.41 175.068C429.624 175.181 429.794 175.365 429.891 175.589C429.989 175.814 430.008 176.065 429.946 176.302C429.885 176.539 429.745 176.748 429.551 176.894C429.358 177.04 429.121 177.114 428.88 177.104L428.9 177.084Z" fill="white"/>
<path d="M471.82 193.952C471.635 193.95 471.453 193.901 471.29 193.81L457 185.391C456.756 185.248 456.578 185.012 456.505 184.735C456.432 184.458 456.469 184.163 456.61 183.915C456.751 183.666 456.982 183.485 457.254 183.41C457.526 183.336 457.816 183.374 458.06 183.518L472.35 191.916C472.564 192.029 472.734 192.213 472.831 192.437C472.929 192.662 472.948 192.913 472.886 193.15C472.825 193.387 472.685 193.596 472.491 193.742C472.298 193.887 472.061 193.962 471.82 193.952Z" fill="white"/>
<path d="M415.66 169.296C415.474 169.3 415.29 169.25 415.13 169.154L399.94 160.226C399.692 160.083 399.51 159.845 399.434 159.565C399.358 159.286 399.394 158.987 399.535 158.734C399.676 158.482 399.909 158.297 400.184 158.219C400.458 158.142 400.752 158.179 401 158.322L416.19 167.24C416.404 167.353 416.574 167.537 416.671 167.761C416.769 167.985 416.788 168.237 416.726 168.474C416.665 168.711 416.525 168.92 416.332 169.065C416.138 169.211 415.901 169.285 415.66 169.276V169.296Z" fill="white"/>
<path d="M448.19 188.414C448.004 188.418 447.82 188.368 447.66 188.272L433.4 179.893C433.156 179.75 432.978 179.514 432.905 179.238C432.832 178.961 432.869 178.666 433.01 178.417C433.151 178.169 433.382 177.988 433.654 177.913C433.926 177.839 434.216 177.877 434.46 178.02L448.72 186.409C448.934 186.522 449.104 186.705 449.201 186.93C449.299 187.154 449.318 187.406 449.256 187.643C449.195 187.88 449.055 188.089 448.862 188.234C448.668 188.38 448.431 188.454 448.19 188.445V188.414Z" fill="white"/>
<path d="M428.9 193.168C428.714 193.172 428.53 193.122 428.37 193.026L419.02 187.528C418.889 187.463 418.773 187.372 418.679 187.259C418.585 187.146 418.514 187.015 418.472 186.873C418.43 186.732 418.416 186.583 418.433 186.436C418.45 186.288 418.496 186.146 418.569 186.018C418.642 185.89 418.74 185.779 418.857 185.691C418.974 185.603 419.107 185.541 419.249 185.507C419.391 185.474 419.538 185.471 419.681 185.498C419.824 185.526 419.96 185.583 420.08 185.666L429.43 191.163C429.655 191.268 429.836 191.45 429.941 191.678C430.047 191.906 430.07 192.164 430.006 192.408C429.943 192.651 429.797 192.864 429.595 193.009C429.393 193.153 429.146 193.221 428.9 193.199V193.168Z" fill="white"/>
<path d="M415.66 185.391C415.475 185.388 415.293 185.339 415.13 185.248L399.94 176.32C399.696 176.177 399.518 175.941 399.445 175.664C399.372 175.388 399.409 175.093 399.55 174.844C399.691 174.596 399.922 174.414 400.194 174.34C400.466 174.265 400.756 174.304 401 174.447L416.19 183.375C416.404 183.488 416.574 183.672 416.671 183.896C416.769 184.121 416.788 184.372 416.726 184.609C416.665 184.846 416.525 185.055 416.332 185.201C416.138 185.346 415.901 185.421 415.66 185.411V185.391Z" fill="white"/>
<path d="M448.19 204.509C448.005 204.506 447.823 204.457 447.66 204.366L433.4 195.988C433.156 195.845 432.978 195.609 432.905 195.332C432.832 195.055 432.869 194.76 433.01 194.512C433.151 194.264 433.382 194.082 433.654 194.008C433.926 193.933 434.216 193.972 434.46 194.115L448.72 202.493C448.963 202.637 449.139 202.874 449.21 203.151C449.282 203.428 449.242 203.722 449.1 203.969C449.013 204.136 448.881 204.275 448.72 204.371C448.56 204.466 448.376 204.514 448.19 204.509Z" fill="white"/>
<path d="M409.85 111.321V150.351C409.85 150.982 409.63 151.369 409.28 151.542L407.81 152.367V151.033L407.6 110.904L409.52 109.886C409.735 110.333 409.848 110.823 409.85 111.321Z" fill="#263238"/>
<path d="M409.52 109.916L407.6 110.934L361.11 83.1529L360 82.5014L361.53 81.6259H361.58C361.723 81.5484 361.884 81.514 362.045 81.5266C362.206 81.5392 362.361 81.5984 362.49 81.6971L408.49 108.664C408.947 108.969 409.305 109.405 409.52 109.916Z" fill="#37474F"/>
<path d="M408.19 112.166V150.941C408.211 151.149 408.182 151.358 408.105 151.552C408.028 151.745 407.907 151.916 407.75 152.051H407.66C407.521 152.108 407.371 152.129 407.222 152.111C407.074 152.093 406.932 152.038 406.81 151.949L361.11 125.145C360.69 124.841 360.346 124.439 360.106 123.974C359.867 123.509 359.738 122.993 359.73 122.468V83.7535C359.709 83.551 359.737 83.3464 359.81 83.1568C359.883 82.9673 360 82.7984 360.15 82.6642C360.191 82.6275 360.238 82.5997 360.29 82.5828C360.426 82.5333 360.571 82.5177 360.713 82.5372C360.856 82.5567 360.992 82.6107 361.11 82.6948L406.81 109.458C407.253 109.753 407.601 110.174 407.81 110.669C408.047 111.132 408.177 111.644 408.19 112.166Z" fill="#455A64"/>
<path d="M391.537 111.437L396.766 137L399.673 138.701L394.445 113.138L391.537 111.437Z" fill="#FAFAFA"/>
<path d="M360.38 82.6235C360.529 82.6279 360.674 82.6737 360.8 82.7559L406.8 109.723C407.205 109.996 407.524 110.381 407.72 110.832C407.931 111.252 408.044 111.715 408.05 112.186V151.196C408.073 151.357 408.058 151.522 408.006 151.676C407.954 151.83 407.866 151.969 407.75 152.082H407.67C407.604 152.098 407.536 152.098 407.47 152.082C407.322 152.07 407.179 152.025 407.05 151.949L361.05 124.972C360.668 124.688 360.356 124.318 360.137 123.89C359.919 123.463 359.8 122.99 359.79 122.509V83.6008C359.773 83.4374 359.793 83.2723 359.846 83.1174C359.9 82.9625 359.986 82.8216 360.1 82.705H360.19C360.249 82.6907 360.311 82.6907 360.37 82.705M360.37 82.4403C360.273 82.4399 360.178 82.4607 360.09 82.5014L359.95 82.5828C359.802 82.7205 359.688 82.8918 359.616 83.0828C359.545 83.2738 359.519 83.4791 359.54 83.6823V122.6C359.549 123.128 359.679 123.646 359.918 124.115C360.158 124.583 360.501 124.988 360.92 125.298L406.92 152.265C407.083 152.366 407.269 152.422 407.46 152.428C407.566 152.429 407.672 152.408 407.77 152.367L407.86 152.316C408.017 152.18 408.14 152.006 408.216 151.811C408.293 151.616 408.322 151.405 408.3 151.196V112.186C408.288 111.677 408.165 111.176 407.94 110.72C407.725 110.226 407.379 109.803 406.94 109.499L360.94 82.5319C360.774 82.4269 360.585 82.3672 360.39 82.3589L360.37 82.4403Z" fill="#37474F"/>
<path d="M402.46 83.6314C402.46 84.741 401.69 85.1889 400.75 84.6494C400.245 84.317 399.827 83.8661 399.529 83.3346C399.232 82.8032 399.064 82.2066 399.04 81.5954C399.04 80.4857 399.8 80.0378 400.75 80.5774C401.251 80.9134 401.667 81.3651 401.964 81.8958C402.262 82.4265 402.431 83.0212 402.46 83.6314Z" fill="white"/>
<path d="M408.82 87.6219C408.82 88.7315 408.05 89.1896 407.1 88.6399C406.597 88.3057 406.18 87.8544 405.883 87.3233C405.585 86.7922 405.416 86.1966 405.39 85.5859C405.39 84.4763 406.16 84.0182 407.1 84.5679C407.605 84.9009 408.024 85.3518 408.323 85.8829C408.622 86.4141 408.793 87.0103 408.82 87.6219Z" fill="white"/>
<path d="M415.17 91.6226C415.17 92.7322 414.41 93.1802 413.46 92.6406C412.959 92.3046 412.543 91.8529 412.246 91.3222C411.948 90.7915 411.779 90.1968 411.75 89.5866C411.75 88.477 412.52 88.0291 413.46 88.5686C413.965 88.901 414.383 89.3518 414.681 89.8833C414.978 90.4148 415.146 91.0113 415.17 91.6226Z" fill="white"/>
</g>
<defs>
<filter id="filter0_d_274_2" x="110.5" y="261.171" width="459" height="280.545" filterUnits="userSpaceOnUse" color-interpolation-filters="sRGB">
<feFlood flood-opacity="0" result="BackgroundImageFix"/>
<feColorMatrix in="SourceAlpha" type="matrix" values="0 0 0 0 0 0 0 0 0 0 0 0 0 0 0 0 0 0 127 0" result="hardAlpha"/>
<feOffset dx="10" dy="15"/>
<feGaussianBlur stdDeviation="2"/>
<feComposite in2="hardAlpha" operator="out"/>
<feColorMatrix type="matrix" values="0 0 0 0 0.320833 0 0 0 0 0.320833 0 0 0 0 0.320833 0 0 0 0.25 0"/>
<feBlend mode="normal" in2="BackgroundImageFix" result="effect1_dropShadow_274_2"/>
<feBlend mode="normal" in="SourceGraphic" in2="effect1_dropShadow_274_2" result="shape"/>
</filter>
<clipPath id="clip0_274_2">
<rect width="500" height="509" fill="white" transform="translate(83 27)"/>
</clipPath>
</defs>
</svg>
