<svg width="400" height="127" viewBox="0 0 400 127" fill="none" xmlns="http://www.w3.org/2000/svg">
<path fill-rule="evenodd" clip-rule="evenodd" d="M0.509183 114.811C0.508523 118.62 0.448771 122.521 0.517436 126.318C1.06412 126.163 7.51237 120.505 8.78498 119.407C9.43037 118.851 11.008 117.601 11.4349 117.044C12.2097 116.562 13.3024 115.495 14.026 114.889L29.1868 101.891C29.9692 101.205 30.9595 100.481 31.6046 99.73L40.0081 92.5693C40.7017 92.0103 42.1117 90.7903 42.5501 90.161C44.5929 88.927 49.3215 82.2716 50.5172 79.3353C54.544 69.4454 53.6514 58.9723 53.3998 48.4981C53.3553 46.6499 53.4259 45.6525 52.7914 44.222C51.8192 42.0299 49.3083 40.9073 46.5525 41.3537C45.0171 41.602 41.3389 43.6267 40.6578 44.445C39.7893 44.761 38.5074 45.7062 37.626 46.255C37.1575 46.5468 36.593 46.9164 36.1916 47.1655C35.668 47.4898 35.0831 47.6897 34.7005 48.2056C34.0296 48.3674 31.6274 49.9793 30.9783 50.51C29.9883 51.3199 28.9138 52.6159 28.7708 54.7729C48.4913 102.264 4.89913 69.2844 0.509183 114.811V114.811ZM20.3613 77.226C22.7422 75.8279 25.3683 74.1747 24.8358 69.9632C1.44045 22.5343 49.1756 56.883 53.1437 13.2212C53.1202 8.83126 53.0925 4.40126 53.1351 0.0136108C52.2652 0.219595 50.1052 2.3093 49.3149 2.98962L38.6989 12.1803L22.6722 25.8901C21.726 26.6045 20.6868 27.5671 19.778 28.3635C18.3483 29.6164 11.8789 34.9724 11.1688 35.955C9.69975 36.7744 6.0562 41.687 4.84235 43.666L3.58987 45.9334C3.4225 46.2792 3.30695 46.4942 3.16302 46.8212C1.20474 51.2765 0.217026 57.4299 0.06385 63.2485C-0.0223115 66.5208 -0.0348577 69.9496 0.111716 73.1248C0.242774 75.9662 -0.149741 80.1109 0.977292 82.1911C2.01288 84.1021 4.3277 85.361 7.16773 84.8375C8.57404 84.5783 9.35148 84.1024 10.4181 83.4573L12.5427 82.1469C12.6982 82.0486 12.7854 82.0048 12.9115 81.9062C12.9326 81.8895 12.9703 81.8589 12.9891 81.843C13.0066 81.8275 13.0429 81.7908 13.0577 81.7769L13.1786 81.6404L20.3613 77.226V77.226Z" fill="url(#paint0_linear_227_4)"/>
<path d="M86.7384 55.6279C87.0352 55.6279 87.3597 55.4022 87.7113 54.9513C88.0628 54.5 88.3246 53.9524 88.4966 53.308L89.8092 48.669C89.9188 48.2502 89.9736 47.8636 89.9736 47.509C89.9736 46.7357 89.7626 46.3491 89.3404 46.3491H73.587C73.2744 46.3491 72.9423 46.5747 72.5907 47.0256C72.2391 47.4769 71.9774 48.0246 71.8054 48.669L69.2034 57.9474C69.0938 58.3661 69.0393 58.7528 69.0393 59.1073C69.0393 59.8802 69.2502 60.2669 69.6721 60.2669H77.5488C77.9866 60.2669 78.2051 60.6535 78.2051 61.4268C78.2051 61.7813 78.1506 62.168 78.041 62.5867L76.7285 67.2257C76.5565 67.8701 76.2947 68.4178 75.9431 68.8691C75.5915 69.3199 75.2591 69.5456 74.9468 69.5456C74.5249 69.5456 74.3136 69.1589 74.3136 68.3856C74.3136 68.0311 74.3684 67.6445 74.4777 67.2257L75.1343 64.9062C75.2436 64.4875 75.2984 64.1008 75.2984 63.7463C75.2984 62.9734 75.0874 62.5867 74.6655 62.5867H69.0393C68.7267 62.5867 68.3946 62.812 68.043 63.2632C67.6914 63.7141 67.4296 64.2618 67.2576 64.9062L65.9447 69.5456C65.8355 69.9644 65.7807 70.351 65.7807 70.7051C65.7807 71.4784 65.9995 71.8651 66.4369 71.8651H82.1906C82.4874 71.8651 82.8119 71.6395 83.1635 71.1886C83.5151 70.7377 83.7769 70.1896 83.9485 69.5456L86.5509 60.2669C86.676 59.8481 86.7384 59.4614 86.7384 59.1073C86.7384 58.334 86.5195 57.9474 86.0821 57.9474H78.2051C77.7677 57.9474 77.5488 57.5607 77.5488 56.7795C77.5488 56.417 77.6036 56.0304 77.7168 55.6036L79.0258 50.9885C79.2133 50.3441 79.479 49.7964 79.823 49.3455C80.1667 48.8943 80.4948 48.669 80.8074 48.669C81.2293 48.669 81.4403 49.0556 81.4403 49.8285C81.4403 50.1831 81.3858 50.5697 81.2762 50.9885L80.6199 53.308C80.5103 53.7271 80.4558 54.1134 80.4558 54.4679C80.4558 55.2412 80.6744 55.6279 81.1121 55.6279H86.7384V55.6279ZM99.5573 60.2669H107.442C107.755 60.2669 108.091 60.0416 108.442 59.5903C108.794 59.1394 109.056 58.5918 109.228 57.9474L111.834 48.669C111.943 48.2502 111.998 47.8636 111.998 47.509C111.998 46.7357 111.787 46.3491 111.365 46.3491H95.611C95.2984 46.3491 94.9663 46.5747 94.6147 47.0256C94.2632 47.4769 94.0014 48.0246 93.8294 48.669L87.9687 69.5456C87.8595 69.9644 87.8047 70.351 87.8047 70.7051C87.8047 71.4784 88.0235 71.8651 88.461 71.8651H104.215C104.511 71.8651 104.836 71.6395 105.188 71.1886C105.539 70.7377 105.801 70.1896 105.973 69.5456L107.285 64.9062C107.395 64.4875 107.45 64.1008 107.45 63.7463C107.45 62.9734 107.239 62.5867 106.817 62.5867H101.19C100.878 62.5867 100.546 62.812 100.194 63.2632C99.8425 63.7141 99.5807 64.2618 99.4088 64.9062L98.7525 67.2257C98.5805 67.8701 98.3187 68.4178 97.9671 68.8691C97.6155 69.3199 97.2834 69.5456 96.9708 69.5456C96.5486 69.5456 96.338 69.1506 96.338 68.3694C96.338 68.0153 96.3845 67.6207 96.4786 67.2015L97.7951 62.5784C97.9671 61.9344 98.2249 61.3863 98.5689 60.9434C98.9126 60.4925 99.2407 60.2669 99.5573 60.2669V60.2669ZM101.042 50.9806C101.229 50.3361 101.495 49.7885 101.843 49.3455C102.187 48.8943 102.515 48.669 102.831 48.669C103.253 48.669 103.464 49.0556 103.464 49.8285C103.464 50.1831 103.41 50.5697 103.3 50.9885L102.011 55.6279C101.823 56.2723 101.558 56.8199 101.214 57.2708C100.87 57.7217 100.542 57.9474 100.229 57.9474C99.7917 57.9474 99.5732 57.5528 99.5732 56.7715C99.5732 56.417 99.6276 56.0224 99.7372 55.5953L101.042 50.9806V50.9806ZM117.87 46.3491C117.557 46.3491 117.225 46.5747 116.873 47.0256C116.522 47.4769 116.26 48.0246 116.088 48.669L110.227 69.5456C110.118 69.9644 110.063 70.351 110.063 70.7051C110.063 71.4784 110.282 71.8651 110.72 71.8651H116.334C116.631 71.8651 116.951 71.6395 117.303 71.1806C117.655 70.7293 117.917 70.1737 118.088 69.5293L123.308 50.9885C123.496 50.3441 123.761 49.7964 124.105 49.3455C124.449 48.8943 124.778 48.669 125.09 48.669C125.512 48.669 125.723 49.0556 125.723 49.8285C125.723 50.1831 125.668 50.5697 125.559 50.9885L124.902 53.308C124.793 53.7271 124.738 54.1134 124.738 54.4679C124.738 55.2412 124.957 55.6279 125.395 55.6279H131.021C131.318 55.6279 131.642 55.4022 131.994 54.9513C132.346 54.5 132.607 53.9524 132.779 53.308L134.092 48.669C134.202 48.2502 134.256 47.8636 134.256 47.509C134.256 46.7357 134.045 46.3491 133.623 46.3491H117.87V46.3491ZM144.043 88.2958C144.121 88.6178 144.231 88.7789 144.371 88.7789C144.637 88.7789 144.887 88.3601 145.122 87.5225L152.74 60.2669C152.865 59.8481 152.928 59.4614 152.928 59.1073C152.928 58.334 152.709 57.9474 152.272 57.9474H146.645C146.333 57.9474 146.005 58.173 145.661 58.6239C145.317 59.0748 145.051 59.6228 144.864 60.2669L142.914 67.2257C142.742 67.8701 142.48 68.4178 142.133 68.8691C141.781 69.3199 141.449 69.5456 141.136 69.5456C140.714 69.5456 140.503 69.1589 140.503 68.3856C140.503 68.0311 140.558 67.6445 140.667 67.2257L145.215 50.9885C145.403 50.3441 145.669 49.7964 146.012 49.3455C146.356 48.8943 146.684 48.669 146.997 48.669C147.419 48.669 147.63 49.0556 147.63 49.8285C147.63 50.1831 147.575 50.5697 147.462 50.9806L146.809 53.308C146.7 53.7271 146.645 54.1134 146.645 54.4679C146.645 55.2412 146.864 55.6279 147.302 55.6279H152.928C153.225 55.6279 153.549 55.4022 153.901 54.9513C154.252 54.5 154.514 53.9524 154.686 53.308L155.999 48.669C156.108 48.2502 156.163 47.8636 156.163 47.509C156.163 46.7357 155.952 46.3491 155.53 46.3491H139.777C139.464 46.3491 139.132 46.5747 138.78 47.0256C138.429 47.4769 138.167 48.0246 137.995 48.669L132.134 69.5456C132.025 69.9644 131.97 70.351 131.97 70.7051C131.97 71.4784 132.189 71.8651 132.627 71.8651H140.503C140.956 71.8651 141.183 72.2355 141.183 72.9766C141.183 73.2665 141.144 73.5727 141.066 73.8947C140.879 74.5391 140.784 75.264 140.784 76.0694C140.784 76.6171 140.832 77.068 140.925 77.4225L144.043 88.2958V88.2958ZM160.629 71.8651C160.925 71.8651 161.25 71.6395 161.602 71.1886C161.953 70.7377 162.215 70.1896 162.387 69.5456L168.248 48.669C168.357 48.2502 168.412 47.8636 168.412 47.509C168.412 46.7357 168.201 46.3491 167.779 46.3491H162.152C161.84 46.3491 161.508 46.5747 161.156 47.0256C160.804 47.4769 160.543 48.0246 160.371 48.669L154.51 69.5456C154.401 69.9644 154.346 70.351 154.346 70.7051C154.346 71.4784 154.565 71.8651 155.002 71.8651H160.629V71.8651ZM174.166 46.3491C173.854 46.3491 173.522 46.5747 173.17 47.0256C172.818 47.4769 172.557 48.0246 172.385 48.669L166.524 69.5456C166.415 69.9644 166.36 70.351 166.36 70.7051C166.36 71.4784 166.579 71.8651 167.016 71.8651H182.77C183.067 71.8651 183.391 71.6395 183.743 71.1886C184.094 70.7377 184.356 70.1896 184.528 69.5456L190.389 48.669C190.498 48.2502 190.553 47.8636 190.553 47.509C190.553 46.7357 190.342 46.3491 189.92 46.3491H174.166V46.3491ZM177.308 67.2257C177.136 67.8701 176.874 68.4178 176.522 68.8691C176.171 69.3199 175.839 69.5456 175.526 69.5456C175.104 69.5456 174.893 69.1589 174.893 68.3856C174.893 68.0311 174.948 67.6445 175.061 67.2257L179.609 50.9885C179.797 50.3441 180.062 49.7964 180.402 49.3455C180.746 48.8943 181.074 48.669 181.387 48.669C181.809 48.669 182.02 49.0556 182.02 49.8285C182.02 50.1831 181.965 50.5697 181.855 50.9885L177.308 67.2257Z" fill="white"/>
<path fill-rule="evenodd" clip-rule="evenodd" d="M64.5744 0H72.7327C74.4157 0 75.8038 1.57605 75.818 3.50285L75.8873 12.8716C75.9015 14.7984 74.5365 16.3744 72.8535 16.3744H64.6952C63.0123 16.3744 61.6241 14.7984 61.6099 12.8716L61.5406 3.50285C61.5264 1.57605 62.8915 0 64.5744 0Z" fill="white"/>
<path fill-rule="evenodd" clip-rule="evenodd" d="M58.1473 22.0551H63.4441C64.5368 22.0551 65.438 23.0785 65.4473 24.3296L65.4922 30.412C65.5014 31.663 64.6154 32.6865 63.5227 32.6865H58.2259C57.1332 32.6865 56.2319 31.663 56.2227 30.412L56.1778 24.3296C56.1686 23.0785 57.0546 22.0551 58.1473 22.0551Z" fill="white"/>
<defs>
<linearGradient id="paint0_linear_227_4" x1="-0.000194136" y1="63.1657" x2="53.6616" y2="63.1657" gradientUnits="userSpaceOnUse">
<stop stop-color="#FF5700"/>
<stop offset="1" stop-color="#CBDF02"/>
</linearGradient>
</defs>
</svg>
