<svg width="262" height="68" viewBox="0 0 262 68" fill="none" xmlns="http://www.w3.org/2000/svg">
<g id="Logo">
<path id="Vector" fill-rule="evenodd" clip-rule="evenodd" d="M0.333515 61.8058C0.333082 63.8561 0.293945 65.9558 0.33892 68C0.696996 67.9166 4.9206 64.8707 5.75416 64.2799C6.17689 63.9802 7.21025 63.3077 7.48984 63.0078C7.99732 62.748 8.71305 62.1739 9.18702 61.8477L19.1173 54.8504C19.6298 54.481 20.2785 54.0915 20.701 53.6871L26.2053 49.8323C26.6596 49.5314 27.5831 48.8746 27.8703 48.5358C29.2083 47.8715 32.3056 44.2887 33.0888 42.7081C35.7263 37.3841 35.1417 31.7461 34.9769 26.1076C34.9477 25.1127 34.994 24.5757 34.5784 23.8056C33.9416 22.6256 32.2969 22.0213 30.4919 22.2616C29.4862 22.3953 27.077 23.4852 26.6309 23.9257C26.062 24.0958 25.2224 24.6046 24.645 24.9001C24.3382 25.0571 23.9684 25.2561 23.7055 25.3902C23.3626 25.5648 22.9794 25.6724 22.7288 25.9501C22.2894 26.0372 20.7159 26.905 20.2908 27.1906C19.6423 27.6267 18.9385 28.3243 18.8449 29.4855C31.7618 55.0513 3.20893 37.2974 0.333515 61.8058V61.8058ZM13.3367 41.5725C14.8961 40.8199 16.6162 39.93 16.2674 37.6628C0.943495 12.1306 32.21 30.6214 34.8091 7.11711C34.7937 4.75391 34.7756 2.36913 34.8035 0.00714111C34.2337 0.118028 32.8189 1.24297 32.3013 1.6092L25.3478 6.55678L14.8503 13.9371C14.2306 14.3217 13.5499 14.8399 12.9546 15.2686C12.0181 15.9431 7.78066 18.8263 7.31555 19.3553C6.35333 19.7964 3.96681 22.441 3.17174 23.5064L2.35137 24.7269C2.24174 24.9131 2.16605 25.0289 2.07178 25.2049C0.789107 27.6033 0.142152 30.9158 0.0418218 34.0481C-0.014614 35.8097 -0.0228318 37.6555 0.0731739 39.3648C0.159017 40.8944 -0.0980802 43.1256 0.640126 44.2454C1.31844 45.2741 2.83464 45.9518 4.69486 45.6701C5.616 45.5305 6.12522 45.2743 6.82385 44.927L8.2155 44.2216C8.31735 44.1687 8.37443 44.1451 8.45703 44.092C8.47087 44.0831 8.49552 44.0666 8.50784 44.058C8.5193 44.0497 8.54309 44.0299 8.55282 44.0224L8.63195 43.949L13.3367 41.5725V41.5725Z" fill="url(#paint0_linear_229_3)"/>
<path id="Vector_2" d="M138.686 16.0801C138.625 15.924 138.548 15.8459 138.456 15.8459C138.292 15.8459 138.133 16.0713 137.98 16.5222L135.515 23.6936C135.403 24.045 135.234 24.3398 135.003 24.5825C134.776 24.8297 134.566 24.951 134.371 24.951H129.212C129.007 24.951 128.79 25.0725 128.559 25.3152C128.329 25.5581 128.158 25.8529 128.045 26.1998L124.206 37.4383C124.135 37.6637 124.099 37.8718 124.099 38.0625C124.099 38.4788 124.242 38.6869 124.529 38.6869H134.847C135.042 38.6869 135.254 38.5654 135.484 38.3227C135.715 38.08 135.886 37.785 135.999 37.4383L140.636 23.8584C140.759 23.4942 140.82 23.0954 140.82 22.6619C140.82 22.367 140.789 22.1328 140.728 21.9593L138.686 16.0801V16.0801ZM131.269 36.1894C131.157 36.5363 130.985 36.8311 130.755 37.0741C130.525 37.3168 130.307 37.4383 130.103 37.4383C129.826 37.4383 129.688 37.2301 129.688 36.8138C129.688 36.623 129.724 36.4148 129.798 36.1894L132.779 27.4528C132.902 27.1061 133.074 26.8068 133.299 26.564C133.524 26.3211 133.737 26.1998 133.941 26.1998C134.218 26.1998 134.356 26.408 134.356 26.8241C134.356 27.0149 134.32 27.2273 134.251 27.4528L131.269 36.1894V36.1894ZM143.561 24.951C143.356 24.951 143.139 25.0725 142.908 25.3152C142.678 25.5581 142.507 25.8529 142.394 26.1998L141.534 28.6971C141.462 28.9228 141.427 29.1307 141.427 29.3216C141.427 29.7378 141.57 29.946 141.857 29.946H145.552C145.747 29.946 145.959 29.8245 146.192 29.5861C146.422 29.3433 146.594 29.0528 146.706 28.7102L147.134 27.4615C147.256 27.1103 147.428 26.811 147.65 26.5683C147.876 26.3211 148.088 26.1998 148.29 26.1998C148.567 26.1998 148.705 26.408 148.705 26.8285C148.705 27.0237 148.672 27.2318 148.608 27.4572L147.758 29.9503C147.635 30.2972 147.461 30.5877 147.233 30.8304C147.008 31.0732 146.791 31.1946 146.586 31.1946H141.427C141.222 31.1946 141.007 31.3161 140.782 31.5588C140.556 31.8015 140.382 32.0966 140.26 32.4433L138.555 37.4383C138.484 37.6637 138.448 37.8718 138.448 38.0625C138.448 38.4788 138.591 38.6869 138.878 38.6869H149.196C149.391 38.6869 149.603 38.5654 149.833 38.3227C150.064 38.08 150.235 37.785 150.348 37.4383L154.187 26.1998C154.258 25.9744 154.294 25.7663 154.294 25.5754C154.294 25.1591 154.156 24.951 153.879 24.951H143.561V24.951ZM145.619 36.1894C145.506 36.5363 145.334 36.8311 145.104 37.0741C144.874 37.3168 144.656 37.4383 144.452 37.4383C144.175 37.4383 144.037 37.2301 144.037 36.8138C144.037 36.623 144.073 36.4148 144.145 36.1894L145.004 33.6921C145.117 33.3452 145.286 33.0504 145.511 32.8075C145.736 32.5647 145.951 32.4433 146.156 32.4433C146.443 32.4433 146.586 32.6514 146.586 33.0677C146.586 33.2585 146.55 33.4622 146.476 33.6876L145.619 36.1894V36.1894ZM165.541 39.7795C165.418 40.1264 165.357 40.5166 165.357 40.9502C165.357 41.245 165.388 41.4877 165.449 41.6786L167.491 47.532C167.543 47.7053 167.614 47.792 167.706 47.792C167.88 47.792 168.044 47.5666 168.198 47.1157L175.322 26.1998C175.394 25.9744 175.43 25.7663 175.43 25.5754C175.43 25.1591 175.292 24.951 175.015 24.951H158.063C157.859 24.951 157.641 25.0725 157.411 25.3152C157.181 25.5581 157.009 25.8529 156.896 26.1998L153.058 37.4383C152.986 37.6637 152.95 37.8718 152.95 38.0625C152.95 38.4788 153.094 38.6869 153.38 38.6869H157.065C157.26 38.6869 157.472 38.5654 157.703 38.3227C157.933 38.08 158.104 37.785 158.217 37.4383L161.626 27.4485C161.749 27.1016 161.923 26.8068 162.148 26.564C162.373 26.3211 162.588 26.1998 162.793 26.1998C163.069 26.1998 163.207 26.408 163.207 26.8241C163.207 27.0149 163.172 27.2231 163.097 27.4485L159.689 37.4383C159.619 37.6637 159.584 37.8718 159.584 38.0625C159.584 38.4788 159.727 38.6869 160.014 38.6869H163.709C163.904 38.6869 164.116 38.5654 164.346 38.327C164.577 38.0842 164.75 37.7937 164.863 37.4513L168.262 27.4528C168.384 27.1016 168.559 26.8068 168.784 26.564C169.007 26.3211 169.221 26.1998 169.426 26.1998C169.703 26.1998 169.841 26.408 169.841 26.8241C169.841 27.0149 169.805 27.2231 169.733 27.4485L165.541 39.7795V39.7795ZM179.138 24.951C178.933 24.951 178.716 25.0725 178.485 25.3152C178.255 25.5581 178.084 25.8529 177.971 26.1998L177.111 28.6971C177.039 28.9228 177.004 29.1307 177.004 29.3216C177.004 29.7378 177.147 29.946 177.433 29.946H181.129C181.324 29.946 181.536 29.8245 181.769 29.5861C181.999 29.3433 182.171 29.0528 182.283 28.7102L182.71 27.4615C182.833 27.1103 183.005 26.811 183.227 26.5683C183.453 26.3211 183.665 26.1998 183.867 26.1998C184.144 26.1998 184.282 26.408 184.282 26.8285C184.282 27.0237 184.249 27.2318 184.185 27.4572L183.335 29.9503C183.212 30.2972 183.038 30.5877 182.81 30.8304C182.585 31.0732 182.368 31.1946 182.163 31.1946H177.004C176.799 31.1946 176.584 31.3161 176.359 31.5588C176.133 31.8015 175.959 32.0966 175.837 32.4433L174.132 37.4383C174.06 37.6637 174.025 37.8718 174.025 38.0625C174.025 38.4788 174.168 38.6869 174.455 38.6869H184.773C184.968 38.6869 185.18 38.5654 185.411 38.3227C185.641 38.08 185.812 37.785 185.925 37.4383L189.763 26.1998C189.835 25.9744 189.871 25.7663 189.871 25.5754C189.871 25.1591 189.733 24.951 189.456 24.951H179.138V24.951ZM181.196 36.1894C181.083 36.5363 180.911 36.8311 180.681 37.0741C180.451 37.3168 180.233 37.4383 180.029 37.4383C179.752 37.4383 179.614 37.2301 179.614 36.8138C179.614 36.623 179.65 36.4148 179.721 36.1894L180.581 33.6921C180.694 33.3452 180.863 33.0504 181.088 32.8075C181.313 32.5647 181.528 32.4433 181.733 32.4433C182.02 32.4433 182.163 32.6514 182.163 33.0677C182.163 33.2585 182.127 33.4622 182.053 33.6876L181.196 36.1894V36.1894ZM202.331 29.946C202.526 29.946 202.738 29.8245 202.969 29.5818C203.199 29.3388 203.37 29.044 203.483 28.6971L204.343 26.1998C204.415 25.9744 204.45 25.7663 204.45 25.5754C204.45 25.1591 204.312 24.951 204.036 24.951H193.717C193.512 24.951 193.295 25.0725 193.065 25.3152C192.834 25.5581 192.663 25.8529 192.55 26.1998L190.846 31.1946C190.774 31.4201 190.738 31.6282 190.738 31.819C190.738 32.2351 190.877 32.4433 191.153 32.4433H196.312C196.599 32.4433 196.742 32.6514 196.742 33.0677C196.742 33.2585 196.706 33.4667 196.635 33.6921L195.775 36.1894C195.662 36.5363 195.491 36.8311 195.26 37.0741C195.03 37.3168 194.812 37.4383 194.608 37.4383C194.332 37.4383 194.193 37.2301 194.193 36.8138C194.193 36.623 194.229 36.4148 194.301 36.1894L194.731 34.9408C194.802 34.7153 194.838 34.5072 194.838 34.3163C194.838 33.9003 194.7 33.6921 194.424 33.6921H190.738C190.534 33.6921 190.316 33.8134 190.086 34.0563C189.856 34.299 189.684 34.5939 189.571 34.9408L188.711 37.4383C188.64 37.6637 188.604 37.8718 188.604 38.0625C188.604 38.4788 188.747 38.6869 189.034 38.6869H199.353C199.547 38.6869 199.759 38.5654 199.99 38.3227C200.22 38.08 200.392 37.785 200.504 37.4383L202.209 32.4433C202.29 32.2178 202.331 32.0097 202.331 31.819C202.331 31.4028 202.188 31.1946 201.901 31.1946H196.742C196.456 31.1946 196.312 30.9865 196.312 30.5659C196.312 30.3708 196.348 30.1627 196.422 29.9329L197.28 27.4485C197.402 27.1016 197.576 26.8068 197.802 26.564C198.027 26.3211 198.242 26.1998 198.447 26.1998C198.723 26.1998 198.861 26.408 198.861 26.8241C198.861 27.0149 198.825 27.2231 198.754 27.4485L198.324 28.6971C198.252 28.9228 198.216 29.1307 198.216 29.3216C198.216 29.7378 198.359 29.946 198.646 29.946H202.331V29.946ZM216.68 29.946C216.875 29.946 217.087 29.8245 217.318 29.5818C217.548 29.3388 217.719 29.044 217.832 28.6971L218.692 26.1998C218.763 25.9744 218.799 25.7663 218.799 25.5754C218.799 25.1591 218.661 24.951 218.385 24.951H208.066C207.861 24.951 207.644 25.0725 207.414 25.3152C207.183 25.5581 207.012 25.8529 206.899 26.1998L203.06 37.4383C202.989 37.6637 202.953 37.8718 202.953 38.0625C202.953 38.4788 203.096 38.6869 203.383 38.6869H213.702C213.896 38.6869 214.108 38.5654 214.339 38.3227C214.569 38.08 214.741 37.785 214.853 37.4383L216.557 32.4433C216.639 32.2178 216.68 32.0097 216.68 31.819C216.68 31.4028 216.537 31.1946 216.25 31.1946H212.565C212.363 31.1946 212.148 31.3161 211.923 31.5588C211.698 31.8015 211.524 32.0966 211.401 32.4433L210.124 36.1894C210.011 36.5363 209.84 36.8311 209.609 37.0741C209.379 37.3168 209.161 37.4383 208.957 37.4383C208.68 37.4383 208.542 37.2301 208.542 36.8138C208.542 36.623 208.578 36.4148 208.652 36.1894L211.631 27.4485C211.754 27.1016 211.928 26.8068 212.151 26.564C212.376 26.3211 212.591 26.1998 212.796 26.1998C213.072 26.1998 213.21 26.408 213.21 26.8241C213.21 27.0149 213.174 27.2231 213.103 27.4485L212.673 28.6971C212.601 28.9228 212.565 29.1307 212.565 29.3216C212.565 29.7378 212.708 29.946 212.995 29.946H216.68V29.946ZM225 32.4433H230.164C230.369 32.4433 230.589 32.322 230.82 32.0791C231.05 31.8363 231.221 31.5415 231.334 31.1946L233.041 26.1998C233.112 25.9744 233.148 25.7663 233.148 25.5754C233.148 25.1591 233.01 24.951 232.734 24.951H222.415C222.21 24.951 221.993 25.0725 221.763 25.3152C221.532 25.5581 221.361 25.8529 221.248 26.1998L217.409 37.4383C217.338 37.6637 217.302 37.8718 217.302 38.0625C217.302 38.4788 217.445 38.6869 217.732 38.6869H228.051C228.245 38.6869 228.457 38.5654 228.688 38.3227C228.918 38.08 229.089 37.785 229.202 37.4383L230.062 34.9408C230.133 34.7153 230.17 34.5072 230.17 34.3163C230.17 33.9003 230.031 33.6921 229.755 33.6921H226.07C225.865 33.6921 225.647 33.8134 225.417 34.0563C225.187 34.299 225.015 34.5939 224.903 34.9408L224.473 36.1894C224.36 36.5363 224.189 36.8311 223.958 37.0741C223.728 37.3168 223.511 37.4383 223.306 37.4383C223.029 37.4383 222.891 37.2256 222.891 36.8051C222.891 36.6144 222.922 36.402 222.983 36.1764L223.846 33.6876C223.958 33.3409 224.127 33.0459 224.353 32.8075C224.578 32.5647 224.793 32.4433 225 32.4433V32.4433ZM225.972 27.4442C226.095 27.0973 226.269 26.8025 226.497 26.564C226.722 26.3211 226.937 26.1998 227.145 26.1998C227.421 26.1998 227.559 26.408 227.559 26.8241C227.559 27.0149 227.523 27.2231 227.452 27.4485L226.607 29.946C226.484 30.2929 226.31 30.5877 226.085 30.8304C225.86 31.0732 225.645 31.1946 225.44 31.1946C225.153 31.1946 225.01 30.9822 225.01 30.5617C225.01 30.3708 225.046 30.1584 225.118 29.9285L225.972 27.4442V27.4442ZM236.764 24.951C236.56 24.951 236.342 25.0725 236.112 25.3152C235.881 25.5581 235.71 25.8529 235.597 26.1998L231.758 37.4383C231.687 37.6637 231.651 37.8718 231.651 38.0625C231.651 38.4788 231.794 38.6869 232.081 38.6869H235.766C235.961 38.6869 236.173 38.5654 236.406 38.3227C236.636 38.08 236.808 37.785 236.92 37.4383L240.329 27.4485C240.452 27.1016 240.623 26.8068 240.849 26.564C241.074 26.3211 241.289 26.1998 241.493 26.1998C241.77 26.1998 241.908 26.408 241.908 26.8241C241.908 27.0149 241.872 27.2231 241.801 27.4485L238.392 37.4383C238.32 37.6637 238.284 37.8718 238.284 38.0625C238.284 38.4788 238.428 38.6869 238.714 38.6869H242.399C242.594 38.6869 242.806 38.5654 243.037 38.3227C243.267 38.08 243.438 37.785 243.551 37.4383L247.39 26.1998C247.461 25.9744 247.497 25.7663 247.497 25.5754C247.497 25.1591 247.359 24.951 247.083 24.951H236.764V24.951ZM251.267 24.951C251.062 24.951 250.845 25.0725 250.614 25.3152C250.384 25.5581 250.212 25.8529 250.1 26.1998L246.261 37.4383C246.19 37.6637 246.154 37.8718 246.154 38.0625C246.154 38.4788 246.297 38.6869 246.584 38.6869H256.902C257.097 38.6869 257.309 38.5654 257.539 38.3227C257.77 38.08 257.941 37.785 258.054 37.4383L261.893 26.1998C261.964 25.9744 262 25.7663 262 25.5754C262 25.1591 261.862 24.951 261.585 24.951H251.267V24.951ZM253.324 36.1894C253.212 36.5363 253.04 36.8311 252.81 37.0741C252.58 37.3168 252.362 37.4383 252.157 37.4383C251.881 37.4383 251.743 37.2301 251.743 36.8138C251.743 36.623 251.779 36.4148 251.853 36.1894L254.832 27.4485C254.955 27.1016 255.129 26.8068 255.351 26.564C255.576 26.3211 255.791 26.1998 255.996 26.1998C256.273 26.1998 256.411 26.408 256.411 26.8241C256.411 27.0149 256.375 27.2231 256.303 27.4485L253.324 36.1894Z" fill="url(#paint1_linear_229_3)"/>
<path id="Vector_3" d="M56.8136 29.9459C57.008 29.9459 57.2206 29.8244 57.4508 29.5816C57.6811 29.3387 57.8526 29.0439 57.9652 28.697L58.825 26.1997C58.8968 25.9743 58.9326 25.7661 58.9326 25.5753C58.9326 25.159 58.7945 24.9509 58.5179 24.9509H48.1995C47.9947 24.9509 47.7772 25.0723 47.5469 25.3151C47.3166 25.558 47.1451 25.8528 47.0325 26.1997L45.3282 31.1945C45.2564 31.4199 45.2207 31.6281 45.2207 31.8189C45.2207 32.235 45.3589 32.4431 45.6352 32.4431H50.7944C51.0812 32.4431 51.2243 32.6513 51.2243 33.0676C51.2243 33.2584 51.1886 33.4666 51.1168 33.692L50.2571 36.1893C50.1445 36.5362 49.973 36.831 49.7427 37.0739C49.5124 37.3167 49.2947 37.4381 49.0901 37.4381C48.8138 37.4381 48.6754 37.23 48.6754 36.8137C48.6754 36.6229 48.7113 36.4147 48.7829 36.1893L49.2129 34.9406C49.2845 34.7152 49.3204 34.5071 49.3204 34.3162C49.3204 33.9001 49.1822 33.692 48.9059 33.692H45.2207C45.0159 33.692 44.7984 33.8132 44.5681 34.0562C44.3378 34.2989 44.1664 34.5937 44.0537 34.9406L43.1938 37.4381C43.1222 37.6636 43.0863 37.8717 43.0863 38.0623C43.0863 38.4786 43.2297 38.6868 43.5162 38.6868H53.8348C54.0292 38.6868 54.2418 38.5653 54.4721 38.3226C54.7023 38.0798 54.8738 37.7848 54.9863 37.4381L56.6908 32.4431C56.7727 32.2177 56.8136 32.0096 56.8136 31.8189C56.8136 31.4026 56.6702 31.1945 56.3837 31.1945H51.2243C50.9378 31.1945 50.7944 30.9863 50.7944 30.5658C50.7944 30.3707 50.8303 30.1625 50.9045 29.9328L51.7618 27.4484C51.8847 27.1015 52.0587 26.8066 52.284 26.5639C52.5091 26.321 52.7241 26.1997 52.9288 26.1997C53.2052 26.1997 53.3433 26.4078 53.3433 26.8239C53.3433 27.0148 53.3077 27.2229 53.2359 27.4484L52.806 28.697C52.7342 28.9226 52.6985 29.1306 52.6985 29.3214C52.6985 29.7377 52.8417 29.9459 53.1284 29.9459H56.8136V29.9459ZM65.21 32.4431H70.3744C70.5792 32.4431 70.7993 32.3219 71.0296 32.0789C71.2599 31.8362 71.4313 31.5414 71.544 31.1945L73.2509 26.1997C73.3225 25.9743 73.3584 25.7661 73.3584 25.5753C73.3584 25.159 73.2202 24.9509 72.9439 24.9509H62.6252C62.4204 24.9509 62.2029 25.0723 61.9726 25.3151C61.7423 25.558 61.5709 25.8528 61.4582 26.1997L57.6195 37.4381C57.5479 37.6636 57.512 37.8717 57.512 38.0623C57.512 38.4786 57.6554 38.6868 57.9419 38.6868H68.2606C68.455 38.6868 68.6673 38.5653 68.8978 38.3226C69.1281 38.0798 69.2995 37.7848 69.4122 37.4381L70.2719 34.9406C70.3435 34.7152 70.3796 34.5071 70.3796 34.3162C70.3796 33.9001 70.2412 33.692 69.9649 33.692H66.2797C66.0749 33.692 65.8574 33.8132 65.6271 34.0562C65.3968 34.2989 65.2254 34.5937 65.1127 34.9406L64.6828 36.1893C64.5702 36.5362 64.3987 36.831 64.1684 37.0739C63.9381 37.3167 63.7206 37.4381 63.5158 37.4381C63.2393 37.4381 63.1013 37.2255 63.1013 36.805C63.1013 36.6143 63.1318 36.4019 63.1935 36.1763L64.0558 33.6875C64.1684 33.3408 64.3373 33.0458 64.5626 32.8073C64.7877 32.5646 65.0026 32.4431 65.21 32.4431V32.4431ZM66.1824 27.4441C66.3052 27.0972 66.4793 26.8024 66.7072 26.5639C66.9323 26.321 67.1472 26.1997 67.3546 26.1997C67.6309 26.1997 67.7691 26.4078 67.7691 26.8239C67.7691 27.0148 67.7334 27.2229 67.6616 27.4484L66.8172 29.9459C66.6942 30.2928 66.5204 30.5876 66.295 30.8303C66.0699 31.073 65.8548 31.1945 65.6502 31.1945C65.3635 31.1945 65.2204 30.9821 65.2204 30.5615C65.2204 30.3707 65.2561 30.1583 65.3278 29.9283L66.1824 27.4441V27.4441ZM77.2047 24.9509C76.9999 24.9509 76.7824 25.0723 76.5521 25.3151C76.3218 25.558 76.1503 25.8528 76.0377 26.1997L72.199 37.4381C72.1272 37.6636 72.0915 37.8717 72.0915 38.0623C72.0915 38.4786 72.2346 38.6868 72.5214 38.6868H76.199C76.3934 38.6868 76.6031 38.5653 76.8336 38.3183C77.0639 38.0754 77.2354 37.7763 77.3478 37.4294L80.7668 27.4484C80.8899 27.1015 81.0637 26.8066 81.289 26.5639C81.5143 26.321 81.7293 26.1997 81.934 26.1997C82.2104 26.1997 82.3485 26.4078 82.3485 26.8239C82.3485 27.0148 82.3126 27.2229 82.2411 27.4484L81.811 28.697C81.7394 28.9226 81.7035 29.1306 81.7035 29.3214C81.7035 29.7377 81.8469 29.9459 82.1336 29.9459H85.8188C86.0132 29.9459 86.2255 29.8244 86.456 29.5816C86.6863 29.3387 86.8578 29.0439 86.9702 28.697L87.8302 26.1997C87.902 25.9743 87.9376 25.7661 87.9376 25.5753C87.9376 25.159 87.7995 24.9509 87.5231 24.9509H77.2047V24.9509ZM94.3482 47.5319C94.3994 47.7052 94.471 47.7919 94.5631 47.7919C94.7372 47.7919 94.9011 47.5664 95.0546 47.1156L100.045 32.4431C100.127 32.2177 100.168 32.0096 100.168 31.8189C100.168 31.4026 100.024 31.1945 99.7379 31.1945H96.0527C95.8479 31.1945 95.633 31.316 95.4077 31.5587C95.1826 31.8014 95.0085 32.0964 94.8857 32.4431L93.6087 36.1893C93.496 36.5362 93.3245 36.831 93.0969 37.0739C92.8666 37.3167 92.6491 37.4381 92.4443 37.4381C92.1679 37.4381 92.0295 37.23 92.0295 36.8137C92.0295 36.6229 92.0654 36.4147 92.137 36.1893L95.116 27.4484C95.2388 27.1015 95.4129 26.8066 95.638 26.5639C95.8633 26.321 96.0782 26.1997 96.283 26.1997C96.5593 26.1997 96.6975 26.4078 96.6975 26.8239C96.6975 27.0148 96.6618 27.2229 96.5877 27.4441L96.1602 28.697C96.0884 28.9226 96.0527 29.1306 96.0527 29.3214C96.0527 29.7377 96.1959 29.9459 96.4826 29.9459H100.168C100.362 29.9459 100.575 29.8244 100.805 29.5816C101.035 29.3387 101.207 29.0439 101.319 28.697L102.179 26.1997C102.251 25.9743 102.287 25.7661 102.287 25.5753C102.287 25.159 102.148 24.9509 101.872 24.9509H91.5536C91.3489 24.9509 91.1313 25.0723 90.9011 25.3151C90.6708 25.558 90.4993 25.8528 90.3866 26.1997L86.5479 37.4381C86.4764 37.6636 86.4405 37.8717 86.4405 38.0623C86.4405 38.4786 86.5838 38.6868 86.8703 38.6868H92.0295C92.3264 38.6868 92.475 38.8862 92.475 39.2851C92.475 39.4412 92.4492 39.606 92.3982 39.7794C92.2754 40.1263 92.2138 40.5165 92.2138 40.9501C92.2138 41.2449 92.2447 41.4876 92.3061 41.6785L94.3482 47.5319V47.5319ZM105.212 38.6868C105.406 38.6868 105.619 38.5653 105.849 38.3226C106.079 38.0798 106.251 37.7848 106.363 37.4381L110.202 26.1997C110.274 25.9743 110.31 25.7661 110.31 25.5753C110.31 25.159 110.171 24.9509 109.895 24.9509H106.21C106.005 24.9509 105.788 25.0723 105.557 25.3151C105.327 25.558 105.156 25.8528 105.043 26.1997L101.204 37.4381C101.132 37.6636 101.097 37.8717 101.097 38.0623C101.097 38.4786 101.24 38.6868 101.527 38.6868H105.212V38.6868ZM114.079 24.9509C113.874 24.9509 113.657 25.0723 113.426 25.3151C113.196 25.558 113.025 25.8528 112.912 26.1997L109.073 37.4381C109.002 37.6636 108.966 37.8717 108.966 38.0623C108.966 38.4786 109.109 38.6868 109.396 38.6868H119.714C119.909 38.6868 120.121 38.5653 120.351 38.3226C120.582 38.0798 120.753 37.7848 120.866 37.4381L124.705 26.1997C124.776 25.9743 124.812 25.7661 124.812 25.5753C124.812 25.159 124.674 24.9509 124.398 24.9509H114.079V24.9509ZM116.137 36.1893C116.024 36.5362 115.852 36.831 115.622 37.0739C115.392 37.3167 115.174 37.4381 114.97 37.4381C114.693 37.4381 114.555 37.23 114.555 36.8137C114.555 36.6229 114.591 36.4147 114.665 36.1893L117.644 27.4484C117.767 27.1015 117.941 26.8066 118.163 26.5639C118.389 26.321 118.603 26.1997 118.808 26.1997C119.085 26.1997 119.223 26.4078 119.223 26.8239C119.223 27.0148 119.187 27.2229 119.115 27.4484L116.137 36.1893Z" fill="white"/>
<path id="Vector_4" fill-rule="evenodd" clip-rule="evenodd" d="M42.2963 0H47.6399C48.7423 0 49.6515 0.848429 49.6608 1.88568L49.7062 6.9291C49.7155 7.96635 48.8214 8.81478 47.7191 8.81478H42.3754C41.2731 8.81478 40.3638 7.96635 40.3545 6.9291L40.3091 1.88568C40.2998 0.848429 41.1939 0 42.2963 0Z" fill="white"/>
<path id="Vector_5" fill-rule="evenodd" clip-rule="evenodd" d="M38.0864 11.8729H41.5559C42.2716 11.8729 42.8619 12.4238 42.8679 13.0973L42.8973 16.3716C42.9034 17.0451 42.323 17.596 41.6073 17.596H38.1379C37.4222 17.596 36.8319 17.0451 36.8258 16.3716L36.7964 13.0973C36.7904 12.4238 37.3707 11.8729 38.0864 11.8729Z" fill="white"/>
</g>
<defs>
<linearGradient id="paint0_linear_229_3" x1="-0.000127159" y1="34.0036" x2="35.1484" y2="34.0036" gradientUnits="userSpaceOnUse">
<stop stop-color="#FF5700"/>
<stop offset="1" stop-color="#CBDF02"/>
</linearGradient>
<linearGradient id="paint1_linear_229_3" x1="124.264" y1="31.7457" x2="262" y2="31.7457" gradientUnits="userSpaceOnUse">
<stop stop-color="#FE5A00"/>
<stop offset="0.27712" stop-color="#FE5A00"/>
<stop offset="0.473743" stop-color="#DFAB01"/>
<stop offset="1" stop-color="#CCDD02"/>
</linearGradient>
</defs>
</svg>
