<svg width="30" height="30" viewBox="0 0 30 30" fill="none" xmlns="http://www.w3.org/2000/svg">
<path d="M15 18.75C19.1421 18.75 22.5 15.3921 22.5 11.25C22.5 7.10786 19.1421 3.75 15 3.75C10.8579 3.75 7.5 7.10786 7.5 11.25C7.5 15.3921 10.8579 18.75 15 18.75Z" stroke="url(#paint0_linear_251_14)" stroke-width="2" stroke-miterlimit="10"/>
<path d="M3.63281 25.3125C4.78469 23.317 6.4416 21.6598 8.43698 20.5077C10.4324 19.3555 12.6959 18.749 15 18.749C17.3041 18.749 19.5676 19.3555 21.563 20.5077C23.5584 21.6598 25.2153 23.317 26.3672 25.3125" stroke="url(#paint1_linear_251_14)" stroke-width="2" stroke-linecap="round" stroke-linejoin="round"/>
<defs>
<linearGradient id="paint0_linear_251_14" x1="15" y1="3.75" x2="15" y2="18.75" gradientUnits="userSpaceOnUse">
<stop stop-color="#FF5700"/>
<stop offset="1" stop-color="#CBDF02"/>
</linearGradient>
<linearGradient id="paint1_linear_251_14" x1="15" y1="18.749" x2="15" y2="25.3125" gradientUnits="userSpaceOnUse">
<stop stop-color="#FF5700"/>
<stop offset="1" stop-color="#CBDF02"/>
</linearGradient>
</defs>
</svg>
